<?xml version="1.0" encoding="UTF-8" standalone="no"?>
<!-- Created with Inkscape (http://www.inkscape.org/) -->

<svg
   xmlns:dc="http://purl.org/dc/elements/1.1/"
   xmlns:cc="http://creativecommons.org/ns#"
   xmlns:rdf="http://www.w3.org/1999/02/22-rdf-syntax-ns#"
   xmlns:svg="http://www.w3.org/2000/svg"
   xmlns="http://www.w3.org/2000/svg"
   xmlns:sodipodi="http://sodipodi.sourceforge.net/DTD/sodipodi-0.dtd"
   xmlns:inkscape="http://www.inkscape.org/namespaces/inkscape"
   width="64px"
   height="64px"
   id="svg2985"
   version="1.1"
   inkscape:version="0.48.5 r10040"
   inkscape:export-filename="/home/ays/Desktop/om.png"
   inkscape:export-xdpi="90"
   inkscape:export-ydpi="90"
   sodipodi:docname="logo.svg">
  <defs
     id="defs2987" />
  <sodipodi:namedview
     id="base"
     pagecolor="#ffffff"
     bordercolor="#666666"
     borderopacity="1.0"
     inkscape:pageopacity="0.0"
     inkscape:pageshadow="2"
     inkscape:zoom="8"
     inkscape:cx="23.499599"
     inkscape:cy="33.990607"
     inkscape:current-layer="layer1"
     showgrid="true"
     inkscape:document-units="px"
     inkscape:grid-bbox="true"
     inkscape:window-width="1366"
     inkscape:window-height="716"
     inkscape:window-x="0"
     inkscape:window-y="0"
     inkscape:window-maximized="1" />
  <metadata
     id="metadata2990">
    <rdf:RDF>
      <cc:Work
         rdf:about="">
        <dc:format>image/svg+xml</dc:format>
        <dc:type
           rdf:resource="http://purl.org/dc/dcmitype/StillImage" />
        <dc:title />
      </cc:Work>
    </rdf:RDF>
  </metadata>
  <g
     id="layer1"
     inkscape:label="om"
     inkscape:groupmode="layer"
     style="display:inline">
    <text
       xml:space="preserve"
       style="font-size:40px;font-style:normal;font-weight:normal;line-height:125%;letter-spacing:0px;word-spacing:0px;fill:#000000;fill-opacity:1;stroke:none;font-family:Sans"
       x="7.2727275"
       y="53.272728"
       id="text2993"
       sodipodi:linespacing="125%"><tspan
         sodipodi:role="line"
         id="tspan2995"
         x="7.2727275"
         y="53.272728" /></text>
    <path
       style="fill:#000000;fill-opacity:0"
       d="m 28.200822,3.6668238 0,-2.72136941 2.369721,0 2.369722,0 0,2.72136941 0,2.721371 -2.369722,0 -2.369721,0 0,-2.721371 z"
       id="path3015"
       inkscape:connector-curvature="0" />
    <path
       style="fill:#000000;fill-opacity:0"
       d="M 26.434882,16.372403 C 20.881156,14.984701 15.667576,9.4441648 14.73516,3.9389605 l -0.199733,-1.1792589 2.232707,0 2.232707,0 1.045408,2.2576247 c 1.306381,2.8212157 3.762445,5.6793087 5.962228,6.9381707 1.427876,0.817132 2.095527,0.963984 4.382597,0.963984 2.309121,0 2.942959,-0.142271 4.396506,-0.986828 2.264514,-1.31576 4.758094,-4.2455196 5.906341,-6.9394952 l 0.935325,-2.1944192 2.315835,-0.019557 2.315836,-0.019557 -0.217344,1.1792602 C 45.924029,4.5874762 45.324542,6.2243396 44.711369,7.5763583 41.551472,14.543783 33.88441,18.233727 26.434882,16.372323 z"
       id="path3785"
       inkscape:connector-curvature="0" />
    <path
       style="fill:#000000;fill-opacity:0"
       d="M 26.434882,16.372403 C 20.881156,14.984701 15.667576,9.4441648 14.73516,3.9389605 l -0.199733,-1.1792589 2.232707,0 2.232707,0 1.045408,2.2576247 c 1.306381,2.8212157 3.762445,5.6793087 5.962228,6.9381707 1.427876,0.817132 2.095527,0.963984 4.382597,0.963984 2.309121,0 2.942959,-0.142271 4.396506,-0.986828 2.264514,-1.31576 4.758094,-4.2455196 5.906341,-6.9394952 l 0.935325,-2.1944192 2.315835,-0.019557 2.315836,-0.019557 -0.217344,1.1792602 C 45.924029,4.5874762 45.324542,6.2243396 44.711369,7.5763583 41.551472,14.543783 33.88441,18.233727 26.434882,16.372323 z"
       id="path3787"
       inkscape:connector-curvature="0" />
    <path
       style="fill:#000000;fill-opacity:0"
       d="M 26.434882,16.372403 C 20.881156,14.984701 15.667576,9.4441648 14.73516,3.9389605 l -0.199733,-1.1792589 2.232707,0 2.232707,0 1.045408,2.2576247 c 1.306381,2.8212157 3.762445,5.6793087 5.962228,6.9381707 1.427876,0.817132 2.095527,0.963984 4.382597,0.963984 2.309121,0 2.942959,-0.142271 4.396506,-0.986828 2.264514,-1.31576 4.758094,-4.2455196 5.906341,-6.9394952 l 0.935325,-2.1944192 2.315835,-0.019557 2.315836,-0.019557 -0.217344,1.1792602 C 45.924029,4.5874762 45.324542,6.2243396 44.711369,7.5763583 41.551472,14.543783 33.88441,18.233727 26.434882,16.372323 z"
       id="path3789"
       inkscape:connector-curvature="0" />
    <path
       style="fill:#000000;fill-opacity:0"
       d="M 26.434882,16.372403 C 20.881156,14.984701 15.667576,9.4441648 14.73516,3.9389605 l -0.199733,-1.1792589 2.232707,0 2.232707,0 1.045408,2.2576247 c 1.306381,2.8212157 3.762445,5.6793087 5.962228,6.9381707 1.427876,0.817132 2.095527,0.963984 4.382597,0.963984 2.309121,0 2.942959,-0.142271 4.396506,-0.986828 2.264514,-1.31576 4.758094,-4.2455196 5.906341,-6.9394952 l 0.935325,-2.1944192 2.315835,-0.019557 2.315836,-0.019557 -0.217344,1.1792602 C 45.924029,4.5874762 45.324542,6.2243396 44.711369,7.5763583 41.551472,14.543783 33.88441,18.233727 26.434882,16.372323 z"
       id="path3791"
       inkscape:connector-curvature="0" />
    <path
       style="fill:#000000;fill-opacity:0"
       d="m 28.200822,3.6668238 0,-2.72136941 2.369721,0 2.369722,0 0,2.72136941 0,2.721371 -2.369722,0 -2.369721,0 0,-2.721371 z"
       id="path3793"
       inkscape:connector-curvature="0" />
    <path
       style="fill:#000000;fill-opacity:0"
       d="m 28.200822,3.6668238 0,-2.72136941 2.369721,0 2.369722,0 0,2.72136941 0,2.721371 -2.369722,0 -2.369721,0 0,-2.721371 z"
       id="path3795"
       inkscape:connector-curvature="0" />
    <path
       style="fill:#000000;fill-opacity:0"
       d="m 28.200822,3.6668238 0,-2.72136941 2.369721,0 2.369722,0 0,2.72136941 0,2.721371 -2.369722,0 -2.369721,0 0,-2.721371 z"
       id="path3797"
       inkscape:connector-curvature="0" />
    <path
       style="fill:#000000;fill-opacity:0"
       d="m 28.200822,3.6668238 0,-2.72136941 2.369721,0 2.369722,0 0,2.72136941 0,2.721371 -2.369722,0 -2.369721,0 0,-2.721371 z"
       id="path3799"
       inkscape:connector-curvature="0" />
    <path
       style="fill:#000000;fill-opacity:0"
       d="m 28.200822,3.6668238 0,-2.72136941 2.369721,0 2.369722,0 0,2.72136941 0,2.721371 -2.369722,0 -2.369721,0 0,-2.721371 z"
       id="path3801"
       inkscape:connector-curvature="0" />
    <path
       style="fill:#000000;fill-opacity:0"
       d="m 28.200822,3.6668238 0,-2.72136941 2.369721,0 2.369722,0 0,2.72136941 0,2.721371 -2.369722,0 -2.369721,0 0,-2.721371 z"
       id="path3803"
       inkscape:connector-curvature="0" />
    <path
       style="fill:#000000;fill-opacity:1"
       d="m 39.575488,8.3838629 0,-2.7213678 2.36972,0 2.369722,0 0,2.7213678 0,2.7213721 -2.369722,0 -2.36972,0 0,-2.7213721 z"
       id="path3805"
       inkscape:connector-curvature="0" />
    <path
       style="fill:#000000;fill-opacity:1"
       d="M 17.483878,62.636899 C 11.795088,60.980683 5.3552505,54.264973 1.8720147,46.356248 1.4018239,45.288678 1.0622295,44.369936 1.117357,44.314602 c 0.2469669,-0.247886 3.6446693,-2.367177 3.7951223,-2.367177 0.092506,0 1.0035703,1.592001 2.024579,3.53778 2.5090446,4.781594 6.0938757,8.942105 9.2522317,10.738031 1.953369,1.110737 2.663153,1.326706 4.36018,1.326706 2.224788,0 3.294964,-0.481383 4.566238,-2.053985 1.455033,-1.799914 1.853102,-3.130448 1.849772,-6.182815 -0.0036,-3.353753 -0.863105,-5.88593 -2.551497,-7.517438 -1.019293,-0.98495 -1.170439,-1.020892 -3.516574,-0.836222 l -2.451506,0.192963 -1.268785,-1.740306 -1.268789,-1.740306 2.218426,-0.624327 c 2.901519,-0.816569 5.707031,-2.893256 6.950423,-5.144821 1.862542,-3.372749 1.035676,-7.463991 -1.978188,-9.787844 -2.694651,-2.077724 -5.040561,-1.946332 -8.172825,0.457745 -0.936091,0.718467 -2.411897,2.269364 -3.279569,3.446434 -0.86767,1.177067 -1.649678,2.13677 -1.7377952,2.132664 -0.088117,-0.0043 -0.8675132,-0.718003 -1.7319933,-1.586446 L 6.6050268,24.986257 7.494332,23.512565 c 1.2145429,-2.012659 4.164618,-5.182513 5.887831,-6.326467 5.011888,-3.327152 10.64775,-2.368364 14.495116,2.465941 1.985823,2.495235 2.882843,5.124357 2.882843,8.449476 0,2.804112 -0.798861,5.047687 -2.710539,7.612469 l -1.131104,1.517528 1.440917,0.709303 c 2.271433,1.118134 3.835661,1.500727 6.170305,1.509201 2.751711,0.01011 4.843355,-1.122771 6.558641,-3.551921 4.190026,-5.933811 5.543165,-6.825153 10.367351,-6.829184 3.611279,-0.0029 4.741906,0.485383 7.031984,3.037622 2.728445,3.040784 4.117604,6.725026 4.394628,11.655132 0.302866,5.390024 -1.070729,10.014232 -4.048829,13.630404 -2.254609,2.737672 -4.067438,3.546821 -7.519253,3.356183 -2.229161,-0.123117 -2.994708,-0.332256 -4.373135,-1.19475 -3.225255,-2.018061 -5.61142,-6.075385 -5.979109,-10.166593 l -0.179454,-1.996749 2.097966,0 c 2.034279,0 2.097962,0.0279 2.097962,0.918778 0,2.160439 1.788153,5.167756 3.752307,6.310635 3.786122,2.203022 6.883529,0.62673 8.858299,-4.508043 0.695789,-1.809179 0.819628,-6.984319 0.223485,-9.339281 -1.035621,-4.091037 -3.498976,-6.621318 -6.399318,-6.573173 -2.681093,0.04451 -4.0605,1.204456 -8.15548,6.857998 -1.642762,2.267995 -3.952567,3.491673 -7.01719,3.717531 -1.262372,0.09304 -2.958099,-0.02253 -3.768283,-0.256805 -0.810179,-0.234276 -1.520554,-0.371411 -1.578608,-0.304742 -0.05806,0.06668 0.115304,0.849614 0.38523,1.739871 0.754706,2.489074 0.462529,6.95967 -0.621081,9.503151 -1.160596,2.724178 -2.972085,4.993186 -4.998784,6.261284 -1.436718,0.898954 -2.097463,1.072671 -4.377796,1.150966 -1.477126,0.05072 -3.185935,-0.05342 -3.797356,-0.231435 l 0,0 z"
       id="path3807"
       inkscape:connector-curvature="0" />
    <path
       style="fill:#000000;fill-opacity:1"
       d="m 38.659193,20.651488 c -3.142254,-0.604052 -6.597306,-2.643134 -8.837318,-5.215546 -1.607954,-1.846559 -3.801198,-6.3623703 -3.801198,-7.8265261 0,-0.81928 0.09883,-0.8583733 2.170095,-0.8583733 l 2.170096,0 1.220928,2.3974899 c 1.611379,3.1642005 4.322793,6.0245565 6.671517,7.0379905 2.414164,1.041669 5.576767,0.905032 7.793337,-0.336706 2.019978,-1.131604 4.635018,-4.16927 5.942736,-6.9031667 l 1.04612,-2.1869961 2.330226,-0.00432 2.330227,-0.00433 -0.190848,1.0958431 c -0.664614,3.8161778 -4.220627,8.8106058 -7.715709,10.8367278 -3.227671,1.871103 -7.606387,2.645279 -11.130209,1.967873 z"
       id="path3811"
       inkscape:connector-curvature="0" />
    <path
       style="fill:#000000;fill-opacity:1"
       d="M 18.239401,62.749177 C 14.689326,62.234162 9.5679833,58.309672 5.9409534,53.32487 3.7874833,50.365252 0.98530667,45.042377 1.2313511,44.378743 1.3543873,44.04689 4.6931884,41.984968 4.9420405,42.087158 c 0.1106908,0.04545 0.8526494,1.276622 1.6487965,2.735931 1.8563655,3.402647 3.2582233,5.449265 5.195325,7.584828 3.529075,3.890638 6.547933,5.420347 9.872786,5.002718 1.477877,-0.185635 2.335789,-0.660837 3.326649,-1.842648 1.200483,-1.431837 1.695691,-2.664527 1.842953,-4.587544 0.336357,-4.392339 -0.705166,-7.891941 -2.834185,-9.523094 l -0.745043,-0.570817 -2.40447,0.11469 -2.40447,0.114691 -1.256626,-1.694135 c -1.08858,-1.467582 -1.213678,-1.710877 -0.935477,-1.819326 0.176632,-0.06886 1.112189,-0.377879 2.079015,-0.686718 3.237846,-1.034288 5.726368,-3.012512 6.896145,-5.482019 0.639802,-1.350683 0.662682,-1.465804 0.662682,-3.334287 0,-1.699206 -0.05546,-2.058364 -0.454612,-2.944048 -0.6839,-1.517519 -2.068827,-2.987523 -3.536227,-3.753464 -1.069278,-0.558132 -1.414358,-0.648341 -2.4801,-0.648341 -1.089132,0 -1.416229,0.09001 -2.720215,0.748542 -1.210937,0.61154 -1.777557,1.05632 -3.095875,2.430163 -0.887512,0.924892 -2.070597,2.238758 -2.629078,2.919705 -0.827244,1.008647 -1.0703115,1.20491 -1.3116285,1.059062 C 9.4954698,27.812585 8.7293442,27.119991 7.955883,26.371954 l -1.4062932,-1.36007 1.0024523,-1.533077 c 3.4521739,-5.279499 7.7224599,-8.227488 11.9178669,-8.227488 4.137191,0 8.115121,2.845797 10.134093,7.2499 0.753112,1.642801 1.110027,3.409375 1.110603,5.496993 8.78e-4,2.938742 -0.71646,4.986154 -2.719789,7.763548 -0.533284,0.739337 -0.930806,1.409756 -0.88338,1.489818 0.141281,0.238505 2.970864,1.452922 4.167756,1.788735 1.694047,0.475307 4.860719,0.426657 6.120955,-0.09403 1.484052,-0.613168 2.56935,-1.593024 4.204795,-3.796289 3.280373,-4.419299 4.872681,-5.623543 7.902363,-5.976464 2.267094,-0.264089 5.028878,0.01963 6.234327,0.640459 1.746666,0.899563 4.049936,3.568807 5.281819,6.12106 2.349593,4.867967 2.483256,12.341541 0.310156,17.342012 -1.271598,2.926046 -3.595029,5.728401 -5.605671,6.761155 -1.030995,0.529564 -1.327023,0.59215 -3.144167,0.664721 -3.698096,0.14769 -5.342884,-0.5026 -7.829398,-3.095465 -1.314079,-1.370284 -1.644459,-1.849547 -2.408411,-3.493736 -0.861565,-1.854283 -1.24185,-3.312744 -1.513096,-5.803034 l -0.104878,-0.962893 1.664586,0 c 2.067999,0 2.566404,0.170745 2.566404,0.879215 0,0.853083 0.520859,2.443034 1.164389,3.554352 1.612633,2.784877 4.584216,4.288271 7.017384,3.550261 2.249502,-0.682302 4.435472,-3.994531 4.84543,-7.341898 0.262795,-2.145757 0.108596,-6.269884 -0.284585,-7.611454 -0.758124,-2.586779 -2.371301,-4.806356 -4.099643,-5.64071 -0.724906,-0.34995 -1.227163,-0.452529 -2.21572,-0.452529 -2.350042,0 -3.66341,0.957786 -6.659874,4.856779 -1.113897,1.449399 -2.355603,2.946651 -2.759345,3.327224 -1.004042,0.94642 -2.922768,1.869231 -4.442711,2.136719 -1.428119,0.251328 -4.326635,0.1494 -5.624218,-0.197778 -0.462946,-0.123866 -0.88556,-0.179472 -0.939143,-0.123563 -0.05358,0.0559 0.03283,0.569109 0.192018,1.140453 0.971784,3.487757 0.544149,8.169357 -1.012311,11.082483 -1.301814,2.436515 -3.123873,4.430643 -5.00219,5.474565 -1.534954,0.853092 -4.23642,1.153523 -6.899053,0.767248 l 0,0 z"
       id="path3005"
       inkscape:connector-curvature="0" />
    <path
       style="fill:#000000;fill-opacity:1"
       d="M 39.241784,20.755788 C 35.274866,20.147384 30.817225,17.259722 28.74932,13.958763 27.789628,12.426826 26.556646,9.7675365 26.219595,8.5026697 25.781001,6.8567321 25.86917,6.790513 28.413721,6.8547932 l 2.036196,0.051439 0.85525,1.6506766 c 1.203972,2.3237257 2.147649,3.6413357 3.743703,5.2271437 2.681135,2.663924 5.454516,3.572076 8.710124,2.852154 1.88838,-0.417582 3.046641,-1.116954 4.723575,-2.852154 1.600246,-1.655848 2.956789,-3.65102 3.883438,-5.7116767 l 0.565637,-1.2578479 2.341984,0 c 2.667679,0 2.51867,-0.1239569 2.062696,1.7159074 -0.787106,3.1760072 -3.795829,7.4864802 -6.640168,9.5130992 -3.038805,2.165177 -7.749126,3.280524 -11.454372,2.712255 l 0,0 z"
       id="path3007"
       inkscape:connector-curvature="0" />
    <path
       style="fill:#000000;fill-opacity:1"
       d="m 39.509586,8.3734993 0,-2.6594232 2.373119,0 2.37312,0 0,2.6594232 0,2.6594237 -2.37312,0 -2.373119,0 0,-2.6594237 z"
       id="path3009"
       inkscape:connector-curvature="0" />
    <path
       style="fill:#000000;fill-opacity:1"
       d="M 17.799936,62.722535 C 16.732647,62.511282 14.122042,61.231774 12.75647,60.25064 9.7724112,58.106656 6.9599497,55.052278 4.6754298,51.474503 3.0683739,48.957699 1.1462941,45.085025 1.2237086,44.519851 1.2804438,44.105647 4.416724,41.9953 4.8550006,42.076419 c 0.1314855,0.02435 1.0052071,1.371892 1.9416039,2.994566 0.9363969,1.622676 2.0914694,3.520952 2.5668292,4.218397 1.0422853,1.529229 3.8420493,4.586067 5.2081363,5.686347 2.18548,1.760234 4.68663,2.630743 6.87347,2.392262 1.449454,-0.158066 2.364187,-0.633896 3.354708,-1.745072 1.58845,-1.781924 2.162264,-3.796529 1.991298,-6.991249 -0.175541,-3.280251 -0.904039,-5.244734 -2.514367,-6.780296 l -0.978637,-0.933199 -2.485374,0.111899 -2.485374,0.111901 -1.073982,-1.528148 c -0.590688,-0.840482 -1.127387,-1.628068 -1.19266,-1.750194 -0.08129,-0.152087 0.28478,-0.349531 1.161874,-0.626672 4.165425,-1.316169 6.635977,-3.150609 7.967694,-5.916186 0.580265,-1.205039 0.608008,-1.352242 0.608008,-3.226207 0,-1.81532 -0.03987,-2.046789 -0.528026,-3.066048 -0.663468,-1.385284 -2.288616,-3.028791 -3.627222,-3.668195 -0.759492,-0.362783 -1.303373,-0.482839 -2.246766,-0.495954 -1.099653,-0.01529 -1.408587,0.0646 -2.650999,0.68549 -1.277286,0.638322 -1.660273,0.973834 -4.174928,3.657406 L 9.8016517,28.161882 9.1424472,27.532272 C 7.4863984,25.950573 6.6374831,25.063413 6.6374831,24.914458 c 0,-0.366209 2.1113631,-3.256569 3.4248489,-4.688464 2.22423,-2.424738 3.959101,-3.664563 6.33131,-4.524669 1.14897,-0.416591 3.675679,-0.554013 5.059463,-0.275176 2.341488,0.471819 4.943217,2.223588 6.591479,4.438104 1.84803,2.482915 2.506786,4.336205 2.630466,7.400324 0.0542,1.343075 0.0088,2.602631 -0.116473,3.231605 -0.271776,1.364357 -1.1693,3.284108 -2.374069,5.077992 -0.538993,0.802549 -0.979987,1.508577 -0.979987,1.568948 0,0.188754 1.431264,0.882242 2.988373,1.447954 2.501861,0.90895 6.101615,0.908161 7.822506,-0.0017 1.043758,-0.551857 1.927943,-1.442115 3.950941,-3.978068 2.504664,-3.139748 3.397654,-4.011945 4.806818,-4.694878 2.349979,-1.138887 6.607022,-1.216485 8.891631,-0.162075 2.006555,0.926081 4.731226,4.287807 5.854282,7.22308 1.650778,4.314547 1.845446,10.40697 0.467741,14.638636 -0.902054,2.770692 -3.044006,6.087179 -4.852312,7.513062 -1.573379,1.240641 -2.338392,1.494985 -4.734041,1.573923 -3.459466,0.113993 -4.991425,-0.439224 -7.214377,-2.605226 -2.446832,-2.384216 -3.724589,-4.988999 -4.255914,-8.676002 -0.32417,-2.249536 -0.461372,-2.074103 1.622086,-2.074103 1.181975,0 1.910334,0.07974 2.094467,0.229261 0.155267,0.126092 0.375307,0.711631 0.488976,1.301193 0.36627,1.899722 1.050955,3.194158 2.452056,4.635767 1.484713,1.527638 3.780804,2.235792 5.562072,1.715444 1.089264,-0.318197 2.698573,-1.882705 3.52757,-3.429362 1.048008,-1.955272 1.321194,-3.35355 1.313067,-6.720846 -0.0083,-3.494764 -0.181376,-4.506338 -1.109224,-6.488111 -1.380955,-2.94956 -3.355865,-4.393097 -5.772566,-4.219391 -2.235073,0.16065 -3.177468,0.881559 -6.413379,4.906069 -2.4278,3.019457 -3.180704,3.759428 -4.522578,4.444886 -2.008874,1.026178 -4.852618,1.338513 -7.707717,0.846561 -0.6729,-0.115945 -1.270535,-0.161689 -1.32808,-0.101653 -0.05754,0.06004 0.03929,0.753274 0.215208,1.540522 0.428059,1.915741 0.426222,5.142056 -0.004,7.117025 -0.607924,2.79034 -1.91993,5.128154 -4.034041,7.188109 -1.450166,1.413014 -2.699999,2.129283 -4.228831,2.42351 -1.237107,0.238081 -4.048717,0.230494 -5.285262,-0.01427 l 4e-6,7e-6 z"
       id="path3083"
       inkscape:connector-curvature="0" />
    <path
       style="fill:#000000;fill-opacity:1"
       d="M 38.542759,20.664683 C 34.888904,19.822384 31.249421,17.465834 29.181838,14.603531 28.082389,13.081481 26.421443,9.6735126 26.127308,8.3361727 25.809988,6.8934074 25.928946,6.8142632 28.412606,6.8157542 l 2.043968,0.00123 0.688801,1.3284842 c 2.259611,4.3580858 5.10095,7.2829708 7.974529,8.2090118 1.347222,0.434157 3.719111,0.484766 5.074363,0.108268 2.838499,-0.788548 5.961387,-3.978955 7.962938,-8.1350978 l 0.728701,-1.5131203 2.364853,0 2.364852,0 -0.0024,0.5043733 c -0.0011,0.2774056 -0.223073,1.1646439 -0.492849,1.9716407 -1.291359,3.8629501 -4.515681,7.8590631 -7.749102,9.6039721 -3.269977,1.764638 -7.706469,2.489883 -10.828543,1.77017 z"
       id="path3085"
       inkscape:connector-curvature="0" />
    <path
       style="fill:#000000;fill-opacity:1"
       d="m 39.509586,8.3734993 0,-2.6594232 2.373119,0 2.37312,0 0,2.6594232 0,2.6594237 -2.37312,0 -2.373119,0 0,-2.6594237 z"
       id="path3087"
       inkscape:connector-curvature="0" />
    <path
       style="fill:#000000;fill-opacity:1"
       d="M 17.799936,62.750481 C 13.602352,61.873762 7.8768723,56.821721 4.0907092,50.653757 3.0691124,48.989495 1.188097,45.045615 1.188097,44.567921 c 0,-0.225516 0.4119632,-0.622106 1.1865599,-1.14228 1.3202108,-0.886578 2.2258746,-1.396678 2.4797496,-1.396678 0.09242,0 1.0974355,1.54751 2.2333684,3.438911 2.4110566,4.014562 3.4195861,5.384546 5.6787741,7.714047 2.634752,2.716755 5.241874,4.083945 7.845972,4.11447 2.165817,0.02539 3.637149,-0.785649 4.84287,-2.669517 0.975841,-1.524692 1.222337,-2.549257 1.218719,-5.065598 -0.005,-3.503729 -0.642774,-5.716384 -2.105071,-7.303682 -1.196586,-1.298878 -1.208912,-1.302623 -3.854593,-1.171177 l -2.359087,0.117208 -1.21595,-1.688116 c -1.154527,-1.602842 -1.319236,-2.071758 -0.727717,-2.071758 0.530923,0 3.71269,-1.340507 4.903977,-2.066087 1.550374,-0.944294 2.986085,-2.460509 3.779413,-3.991339 0.60512,-1.167661 0.615042,-1.222067 0.602425,-3.303636 -0.01194,-1.970033 -0.0477,-2.183279 -0.517012,-3.082948 -0.720023,-1.380278 -2.623465,-3.195598 -3.854693,-3.676233 -1.601401,-0.62514 -2.857622,-0.533482 -4.574968,0.333803 -1.290085,0.651511 -1.68194,0.993187 -4.101716,3.576465 -1.471451,1.570878 -2.7554979,2.856139 -2.8534376,2.856139 -0.267638,0 -3.1581973,-2.948808 -3.1581973,-3.22184 0,-0.4276 2.557495,-3.80986 3.9823779,-5.266649 1.724356,-1.762972 2.779951,-2.571032 4.367488,-3.343323 1.542962,-0.750608 2.698717,-1.006784 4.542172,-1.006784 2.929421,0 5.1672,1.038307 7.499213,3.479557 2.605828,2.727893 3.505852,4.850774 3.649026,8.606956 0.130115,3.413529 -0.280602,4.860385 -2.244969,7.908485 -0.578867,0.898225 -1.052484,1.717159 -1.052484,1.819853 0,0.102695 0.296641,0.34333 0.659201,0.534745 3.264759,1.723643 7.695582,2.106331 10.032795,0.866525 0.880934,-0.467303 2.3659,-2.000782 4.36582,-4.508451 3.290716,-4.126175 4.825244,-4.951408 9.200743,-4.947933 3.163107,0.0025 4.69499,0.663928 6.713688,2.898758 2.032084,2.24965 3.175492,4.416205 3.944539,7.474203 0.620794,2.468498 0.784652,7.209155 0.335327,9.701659 -0.858976,4.764953 -3.818142,9.480834 -6.928666,11.041883 -0.882162,0.442725 -1.235593,0.504404 -3.282066,0.572766 -3.707876,0.123865 -5.301999,-0.500589 -7.704706,-3.01811 -1.358955,-1.423893 -2.183915,-2.714558 -2.873314,-4.495341 -0.494021,-1.276103 -1.097736,-4.100041 -1.101265,-5.151281 l -0.0024,-0.687783 1.889706,0.0027 c 1.039338,0.0016 1.9756,0.06344 2.080577,0.137555 0.104984,0.07412 0.320671,0.680521 0.479315,1.347575 0.427402,1.797101 0.857002,2.715806 1.855082,3.967126 1.240612,1.55538 2.996258,2.48132 4.723061,2.490973 1.501441,0.0083 2.248728,-0.374674 3.586072,-1.838257 1.079168,-1.18104 1.702217,-2.314752 2.201789,-4.006417 0.266483,-0.90237 0.321302,-1.699383 0.314841,-4.577378 -0.0089,-3.941941 -0.181438,-4.762736 -1.488033,-7.076986 -1.32345,-2.3441 -2.74953,-3.277541 -5.007317,-3.277541 -2.349113,0 -3.247623,0.652568 -6.681005,4.85227 -3.014449,3.687262 -3.972428,4.443326 -6.495981,5.126795 -1.118996,0.303065 -4.201896,0.364838 -5.868705,0.117593 -0.691723,-0.102612 -0.961926,-0.07886 -1.024041,0.09003 -0.04641,0.126177 0.05126,1.075695 0.21702,2.110038 0.517293,3.227778 0.07353,6.800682 -1.161772,9.353908 -1.583925,3.273788 -4.215498,5.801685 -6.752794,6.486751 -1.123683,0.30339 -4.543998,0.359823 -5.807973,0.09583 l 0,2e-6 z"
       id="path3006"
       inkscape:connector-curvature="0" />
    <path
       style="fill:#000000;fill-opacity:1"
       d="M 17.183743,62.604133 C 13.054426,61.401425 7.8303715,56.691762 4.2654452,50.957858 3.0315206,48.973187 1.188097,45.205711 1.188097,44.668563 c 0,-0.232294 0.235465,-0.578514 0.5713066,-0.840031 0.9103323,-0.708864 2.3713635,-1.597203 2.8201858,-1.714734 0.466429,-0.122145 0.3874322,-0.22707 2.7668416,3.67504 2.2129795,3.629174 3.201637,4.952889 5.342383,7.152932 2.008646,2.064284 3.118812,2.882101 5.062115,3.729071 0.946059,0.412332 1.354839,0.480249 2.861592,0.475453 1.561958,-0.0049 1.860674,-0.06105 2.680336,-0.503108 1.102464,-0.594587 2.333769,-2.133181 2.888777,-3.609711 0.324436,-0.863124 0.377677,-1.366185 0.368799,-3.484763 -0.01554,-3.711337 -0.484668,-5.429583 -1.958641,-7.173927 -1.030243,-1.219216 -1.402404,-1.331636 -4.038969,-1.220064 L 18.313092,41.249486 17.17758,39.6204 c -0.624531,-0.895997 -1.135512,-1.719791 -1.135512,-1.83065 0,-0.110861 0.711937,-0.471159 1.582081,-0.800664 4.159537,-1.575122 6.055905,-3.039024 7.435669,-5.739974 0.534125,-1.045562 0.562623,-1.202745 0.562623,-3.103013 0,-1.76337 -0.0519,-2.110367 -0.436121,-2.91479 -0.589694,-1.234667 -2.300577,-3.001042 -3.541001,-3.655851 -0.83999,-0.443425 -1.231535,-0.53613 -2.255142,-0.533942 -1.062679,0.0023 -1.425985,0.09742 -2.557069,0.669673 -1.124474,0.56891 -1.728654,1.087097 -4.107511,3.522871 -1.534011,1.570717 -2.8686672,2.855848 -2.9659037,2.855848 -0.2508943,0 -3.1222102,-2.955197 -3.1222102,-3.213419 0,-0.117598 0.3867886,-0.783862 0.85953,-1.480586 2.2073006,-3.253107 4.7630799,-5.737099 7.1387619,-6.938242 1.988657,-1.005462 2.808777,-1.206349 4.924927,-1.206349 3.033593,0 5.543228,1.241661 7.954453,3.935525 2.263617,2.528956 3.205097,5.147128 3.205097,8.91309 0,2.77168 -0.317464,3.862855 -1.933513,6.645776 -0.676855,1.165578 -1.230645,2.206807 -1.230645,2.313843 0,0.293397 1.564886,1.061218 3.109786,1.525833 1.119144,0.336575 1.811228,0.413118 3.745893,0.414293 3.619515,0.0022 3.343359,0.193834 9.191453,-6.378196 1.521289,-1.709611 2.112275,-2.240257 2.988374,-2.683261 1.46887,-0.742743 3.050896,-0.992317 5.633882,-0.888777 2.789226,0.111808 3.688621,0.460915 5.368796,2.083948 3.905217,3.772402 5.446812,8.147953 5.250044,14.901338 -0.09535,3.27264 -0.39711,4.78338 -1.452895,7.273856 -1.202624,2.836856 -3.648545,5.785178 -5.65003,6.810568 -1.004183,0.514461 -1.088879,0.525773 -3.936166,0.525773 l -2.909898,0 -1.330405,-0.686186 c -1.447539,-0.746599 -3.315326,-2.488268 -4.343687,-4.050398 -1.308337,-1.987418 -2.229989,-4.73332 -2.427001,-7.230818 l -0.1049,-1.329711 1.91508,0.0027 c 1.053295,0.0016 2.004799,0.06344 2.114454,0.137556 0.109653,0.07412 0.338978,0.671219 0.509605,1.326903 0.841725,3.234552 2.591883,5.379787 4.996982,6.124994 1.247282,0.386462 2.386569,0.36653 3.28135,-0.0574 1.055529,-0.500102 2.593336,-2.222461 3.299783,-3.695792 0.90302,-1.883295 1.036752,-2.854429 0.944363,-6.857735 -0.09291,-4.025908 -0.248446,-4.650344 -1.73653,-6.971678 -1.446736,-2.256837 -3.226384,-3.117542 -5.588118,-2.702625 -1.612317,0.283255 -2.6041,1.080023 -5.262355,4.227602 -2.771589,3.281778 -3.757953,4.258014 -4.926315,4.875739 -1.61975,0.856378 -2.960337,1.071358 -6.069015,0.973241 l -2.792051,-0.08813 0.155251,1.489816 c 0.28088,2.695383 0.168117,5.904214 -0.264577,7.528904 -1.017351,3.819952 -3.52706,7.126532 -6.523744,8.59513 -1.089475,0.533925 -1.265242,0.56276 -3.779413,0.620017 -2.139499,0.04871 -2.852475,-0.0027 -3.780352,-0.273022 l 0,2e-6 z"
       id="path3008"
       inkscape:connector-curvature="0" />
    <path
       style="fill:#000000;fill-opacity:1"
       d="M 17.210695,62.660016 C 13.238018,61.499788 7.9473043,56.798477 4.4594938,51.329342 3.1620583,49.29487 1.188097,45.290397 1.188097,44.69283 c 0,-0.33669 0.2230333,-0.628961 0.8349865,-1.0942 1.1020471,-0.837833 2.6199316,-1.633808 2.8980619,-1.519733 0.1221831,0.05012 1.0096866,1.359286 1.9722298,2.909273 2.6872763,4.327336 3.4773338,5.385262 5.8745588,7.866321 1.983197,2.052552 2.403809,2.394164 3.951906,3.20965 1.659471,0.874153 1.802883,0.915323 3.402606,0.976839 2.336755,0.08986 3.058766,-0.15522 4.319498,-1.466187 1.507232,-1.567294 1.942589,-2.682004 2.031178,-5.200742 0.08478,-2.410547 -0.21061,-4.794537 -0.749948,-6.052481 -0.21625,-0.504375 -0.782226,-1.357509 -1.257729,-1.895858 -1.054271,-1.193611 -1.754264,-1.385297 -4.400043,-1.204906 l -1.777627,0.121201 -1.188967,-1.779272 c -0.653932,-0.9786 -1.119664,-1.845777 -1.03496,-1.927057 0.0847,-0.08129 1.087095,-0.533922 2.227536,-1.005867 1.140441,-0.471945 2.549402,-1.149078 3.131025,-1.504739 1.386668,-0.84794 2.76315,-2.327539 3.504507,-3.767037 0.578668,-1.123604 0.596971,-1.223206 0.600617,-3.268367 0.0035,-1.991668 -0.0242,-2.159236 -0.497134,-3.001213 -0.275491,-0.490474 -0.968973,-1.372621 -1.541072,-1.96033 -2.095429,-2.152602 -4.158895,-2.580846 -6.580373,-1.365662 -1.072971,0.538456 -1.732295,1.100814 -4.085623,3.484761 -1.543399,1.563481 -2.9157442,2.842691 -3.0496551,2.842691 -0.1339109,0 -0.9087093,-0.6977 -1.7217727,-1.550449 -1.7247589,-1.808939 -1.7238331,-1.600237 -0.017475,-3.938994 1.2398171,-1.69931 3.0694396,-3.683572 4.4040136,-4.776243 1.216712,-0.996171 3.423727,-2.122081 4.702776,-2.399125 1.469213,-0.318232 4.475456,-0.140256 5.737055,0.339645 2.14229,0.814908 4.647836,3.00477 6.152933,5.377695 1.142064,1.800575 1.545641,3.354522 1.645449,6.335707 0.108339,3.235996 -0.123252,4.146278 -1.858818,7.306176 -0.664862,1.210496 -1.175593,2.264372 -1.134958,2.341948 0.159468,0.304432 1.908004,1.093104 3.170244,1.429929 0.98353,0.26245 1.931115,0.354814 3.640149,0.354814 3.257232,0 3.258945,-0.001 7.594079,-4.696637 4.490125,-4.863459 5.11043,-5.207422 9.391068,-5.207422 3.295776,0 4.444883,0.426293 6.376525,2.365549 2.79602,2.807044 4.283501,5.939942 4.871127,10.259452 0.306064,2.24983 0.123403,7.072548 -0.335965,8.870197 -1.016695,3.978628 -3.876101,8.162435 -6.583435,9.632694 -0.867443,0.471081 -1.06952,0.501015 -3.830526,0.567435 l -2.914775,0.07012 -1.225057,-0.643677 C 43.874925,58.047305 41.29921,53.901461 40.775587,48.763854 l -0.145417,-1.426784 2.104757,0.05123 2.104756,0.05122 0.473016,1.467269 c 1.218089,3.778448 2.881547,5.584383 5.630088,6.112303 1.801523,0.346023 3.056387,-0.175064 4.482763,-1.861485 1.996236,-2.360175 2.547188,-4.845756 2.215504,-9.995063 -0.184085,-2.857855 -0.189938,-2.885631 -0.930182,-4.413053 -0.847738,-1.749228 -2.067743,-3.167219 -3.176907,-3.692465 -1.032489,-0.488938 -3.107189,-0.48994 -4.137495,-0.0021 -1.138243,0.539058 -1.852919,1.178112 -3.683493,3.293733 -5.250388,6.067948 -5.892267,6.431337 -11.36011,6.431337 l -2.973413,0 0.104709,0.546218 c 0.253544,1.322686 0.326266,4.948756 0.129993,6.481842 -0.581001,4.538226 -3.150757,8.524515 -6.673488,10.352134 l -1.297033,0.672909 -2.74606,0.0508 c -2.028625,0.03753 -2.991858,-0.021 -3.686875,-0.223972 l 0,0 z"
       id="path3010"
       inkscape:connector-curvature="0" />
    <path
       style="fill:#000000;fill-opacity:1"
       d="M 17.712042,62.810212 C 16.623558,62.618587 14.767835,61.709029 13.049398,60.524884 9.9420607,58.383669 6.5409734,54.700178 4.1848455,50.924276 3.0298191,49.073246 1.188097,45.252118 1.188097,44.706751 c 0,-0.22712 0.177984,-0.581502 0.3955199,-0.787515 0.6071462,-0.574989 2.7957152,-1.890273 3.1453242,-1.890273 0.2090151,0 1.1334228,1.277969 2.8191739,3.897431 2.2610066,3.513344 2.759822,4.161969 5.061603,6.58176 2.387133,2.509518 2.664902,2.741432 4.265343,3.561224 l 1.711923,0.876893 1.891703,0.009 c 2.271182,0.01084 2.85531,-0.238403 4.22548,-1.802588 1.371868,-1.566125 1.673844,-2.577443 1.673331,-5.603954 -7.03e-4,-3.681068 -0.436768,-5.302445 -1.859516,-6.912869 -1.10696,-1.252981 -1.367354,-1.339909 -4.028572,-1.344848 l -2.337901,-0.0044 -1.113221,-1.759536 c -0.612272,-0.967703 -1.047343,-1.824225 -0.966826,-1.903341 0.08052,-0.07911 0.85833,-0.448222 1.728474,-0.820244 4.054489,-1.733451 5.963506,-3.240208 7.092903,-5.598327 0.519387,-1.08445 0.553816,-1.280392 0.553816,-3.151842 0,-2.436431 -0.222604,-2.987676 -1.91561,-4.743772 -1.900536,-1.971356 -3.594575,-2.549473 -5.570508,-1.901018 -1.454362,0.477287 -2.521097,1.29774 -5.408125,4.159524 -1.399263,1.387027 -2.6516858,2.521868 -2.7831626,2.521868 -0.1314767,0 -0.8983125,-0.691441 -1.704079,-1.536535 -1.6814647,-1.763531 -1.6709744,-1.677775 -0.4226873,-3.455391 2.1287554,-3.031444 4.4987409,-5.342777 6.6955759,-6.529868 1.931576,-1.043754 2.969714,-1.316802 5.006542,-1.316802 3.34063,0 5.218937,0.870591 7.872551,3.648908 2.664708,2.78993 3.493961,4.970187 3.50005,9.202252 0.0037,2.655821 -0.200796,3.409326 -1.770854,6.521248 -0.667957,1.323917 -1.214467,2.447486 -1.214467,2.49682 0,0.171953 2.053089,1.049423 3.175807,1.357308 0.778047,0.213367 1.871504,0.313911 3.504085,0.322208 2.10583,0.01073 2.462757,-0.03363 3.168954,-0.3936 0.531233,-0.270785 1.992389,-1.65999 4.394665,-4.178264 3.182173,-3.335826 3.750418,-3.851155 4.908117,-4.45107 l 1.309281,-0.678466 3.176973,0 3.176973,0 1.156979,0.594274 c 0.849652,0.436419 1.537041,1.007323 2.587794,2.149267 2.222319,2.415186 3.319644,4.471163 4.086647,7.656842 0.476113,1.977491 0.652871,6.774765 0.338688,9.192059 -0.486477,3.74289 -2.342921,7.425868 -5.071797,10.06187 -1.790397,1.729462 -2.24201,1.881657 -5.795495,1.953101 l -3.041366,0.06115 -1.350171,-0.79478 c -1.703622,-1.00283 -3.787157,-3.121845 -4.748897,-4.829757 -0.782274,-1.389206 -1.677081,-4.032457 -1.862654,-5.502257 -0.06368,-0.504373 -0.160591,-1.229146 -0.215357,-1.610608 l -0.09958,-0.693562 2.158907,0.05164 2.158906,0.05164 0.632375,1.748804 c 1.23762,3.422585 2.466921,4.862882 4.755792,5.572076 2.060206,0.638345 3.357587,0.242843 4.96263,-1.512839 1.866658,-2.041848 2.41196,-3.835397 2.407121,-7.917238 -0.0043,-3.69771 -0.185318,-4.933554 -0.953465,-6.512543 -1.379733,-2.836153 -2.878202,-3.998845 -5.179168,-4.018623 -1.936509,-0.01665 -2.815883,0.485925 -5.017364,2.867492 -4.855077,5.252224 -5.193673,5.588239 -6.128478,6.081712 -1.635825,0.863537 -2.572365,1.027192 -5.891873,1.029559 -2.834206,0.0021 -3.042536,0.025 -2.930311,0.323142 0.06645,0.176531 0.163883,1.558972 0.216519,3.072093 0.07476,2.149169 0.03039,3.112303 -0.202801,4.401804 -0.760234,4.20399 -3.21123,7.777763 -6.593281,9.613591 l -1.379829,0.74899 -2.697852,-0.02497 c -1.483815,-0.01375 -2.895609,-0.0598 -3.137316,-0.102341 z"
       id="path3012"
       inkscape:connector-curvature="0" />
    <path
       style="fill:#000000;fill-opacity:1"
       d="M 16.657322,62.506386 C 16.028884,62.273512 15.237845,61.93247 14.899455,61.748518 11.181031,59.727147 6.4831892,54.901807 3.821785,50.370199 2.7499268,48.545134 1.188097,45.167529 1.188097,44.674602 c 0,-0.258306 0.2462631,-0.629823 0.6445116,-0.972326 0.7662363,-0.658983 2.543293,-1.673313 2.9315605,-1.673313 0.1578029,0 1.0773228,1.229907 2.1596767,2.888684 2.6744492,4.098766 3.7779332,5.521181 6.2438552,8.04848 1.899167,1.946433 2.379001,2.333713 3.829474,3.09082 l 1.658252,0.865561 1.945373,-0.07219 c 1.375335,-0.05105 2.107099,-0.162325 2.497291,-0.379794 0.89858,-0.500811 2.19911,-1.987275 2.685817,-3.069804 0.426658,-0.948968 0.45373,-1.178787 0.45376,-3.85201 1.4e-5,-1.698771 -0.09325,-3.266409 -0.231757,-3.89536 -0.288283,-1.309088 -1.419961,-3.118409 -2.353737,-3.763145 -0.645059,-0.445389 -0.864662,-0.484606 -3.137531,-0.560288 l -2.443927,-0.08137 -1.077568,-1.735539 c -0.592661,-0.954544 -1.009555,-1.80176 -0.926429,-1.882699 0.08313,-0.08094 1.20782,-0.648353 2.499321,-1.260921 1.291502,-0.612567 2.7258,-1.366579 3.187329,-1.675582 1.14788,-0.768532 2.50408,-2.305685 3.088957,-3.501108 0.439711,-0.898723 0.487558,-1.186199 0.501154,-3.011078 0.01886,-2.531073 -0.271045,-3.237979 -2.021239,-4.928649 -1.510807,-1.459424 -2.498107,-1.967851 -3.826157,-1.970343 -2.006512,-0.0038 -3.225634,0.757897 -6.919496,4.323035 -1.415673,1.36634 -2.6805887,2.484253 -2.8109244,2.484253 -0.1303367,0 -0.8968838,-0.656893 -1.7034395,-1.459764 -1.7461213,-1.738145 -1.7476647,-1.764495 -0.2258426,-3.85516 2.8361845,-3.896322 5.9680435,-6.458139 8.8863115,-7.26888 1.217129,-0.338136 4.176424,-0.324035 5.464604,0.02604 1.801433,0.489558 3.037662,1.312635 4.942439,3.290651 2.894442,3.005735 3.685004,5.175702 3.563759,9.781965 l -0.06614,2.513121 -1.392422,2.982208 c -0.850882,1.822367 -1.328477,3.045894 -1.228001,3.145956 0.09044,0.09006 0.876358,0.430872 1.746502,0.757359 1.466132,0.550108 1.781769,0.59954 4.306773,0.674494 2.599567,0.07717 2.759126,0.06121 3.474487,-0.347378 0.412389,-0.23554 2.441628,-2.135758 4.50942,-4.2227 3.129336,-3.158316 3.968045,-3.903952 5.002832,-4.447657 l 1.243203,-0.653213 3.098895,0 3.098895,0 1.204017,0.660125 c 1.488479,0.816089 3.818125,3.266386 4.882061,5.134906 0.998262,1.753183 1.739209,3.957389 2.07594,6.175608 0.364072,2.39833 0.251998,7.693801 -0.200809,9.488158 -0.402155,1.593642 -1.659872,4.3604 -2.613901,5.750136 -0.981975,1.430444 -2.975353,3.438697 -3.889602,3.918625 -0.971012,0.509726 -1.543192,0.587389 -4.573826,0.620816 l -2.640174,0.02913 -1.290663,-0.803396 c -3.609513,-2.246824 -5.8403,-5.747014 -6.614345,-10.378176 -0.413725,-2.475331 -0.599263,-2.255084 1.899695,-2.255084 l 2.16202,0 0.231193,0.687783 c 0.53528,1.592406 1.488592,3.668515 2.052665,4.470253 1.198775,1.703866 3.765406,2.801231 5.522916,2.361328 1.335668,-0.334315 3.056992,-2.012217 3.950857,-3.851194 0.66371,-1.365477 0.851371,-2.771571 0.84449,-6.327594 -0.0077,-3.923938 -0.246928,-4.965595 -1.631103,-7.099004 -1.323901,-2.040508 -2.483591,-2.714501 -4.659966,-2.708299 -1.781648,0.005 -2.24961,0.344783 -6.281092,4.559652 -2.269988,2.373246 -3.965374,3.992395 -4.495719,4.29356 -1.442586,0.819198 -2.654645,1.045796 -5.593903,1.045796 -1.470359,0 -2.792189,0.04756 -2.937395,0.105705 -0.22581,0.09041 -0.2497,0.548221 -0.165092,3.163796 0.08003,2.47388 0.04114,3.355919 -0.203595,4.617066 -0.789731,4.069783 -2.928285,7.274749 -6.235845,9.345407 l -1.478298,0.92547 -3.004261,-0.0039 c -2.685301,-0.0034 -3.125574,-0.04883 -4.146876,-0.427279 z"
       id="path3014"
       inkscape:connector-curvature="0" />
    <path
       style="fill:#000000;fill-opacity:1"
       d="M 16.745215,62.583616 C 14.261172,61.659117 11.901789,59.992822 9.2112839,57.262843 6.1017649,54.107703 4.227614,51.474843 2.349293,47.622923 1.1156672,45.093095 1.0008748,44.554069 1.5622094,43.927041 c 0.4897476,-0.547063 2.74413,-1.892144 3.177153,-1.895654 0.1892755,-0.0016 1.0543769,1.126326 2.3545253,3.069669 2.7140527,4.056718 3.7876843,5.421548 6.1852553,7.862891 1.488433,1.515607 2.39429,2.269591 3.525626,2.934536 l 1.522525,0.894865 1.992671,-0.0371 c 1.625205,-0.03026 2.135402,-0.109188 2.76666,-0.428031 0.942065,-0.475819 2.087566,-1.783193 2.645748,-3.019629 0.375488,-0.831748 0.414153,-1.166327 0.41571,-3.597284 0.0026,-3.972267 -0.343878,-5.322888 -1.811456,-7.062437 -0.826247,-0.979361 -1.309644,-1.131427 -4.160462,-1.308752 l -2.194223,-0.136493 -1.005046,-1.650678 c -0.552775,-0.907872 -1.009023,-1.711023 -1.013883,-1.784783 -0.0048,-0.07375 1.355708,-0.829185 3.023483,-1.678722 2.65407,-1.351942 3.169695,-1.688368 4.133619,-2.697025 0.622578,-0.651464 1.329397,-1.628652 1.626028,-2.248002 0.464445,-0.969737 0.524725,-1.283058 0.524725,-2.727464 0,-2.430894 -0.218371,-3.099583 -1.46702,-4.492267 -2.002074,-2.233022 -3.50712,-2.913358 -5.444327,-2.461033 -1.317037,0.307518 -2.659395,1.284208 -5.767118,4.196102 -1.426479,1.33659 -2.7045238,2.430163 -2.8401002,2.430163 -0.403171,0 -3.1171266,-2.798457 -3.1159078,-3.212926 0.0028,-0.953528 3.1851727,-4.89939 5.538367,-6.8671 1.391093,-1.163212 3.093895,-2.123503 4.387653,-2.474406 1.227701,-0.332984 4.055614,-0.375193 5.403802,-0.08065 1.470122,0.321181 3.203359,1.376377 4.742961,2.887522 1.77041,1.737687 2.872054,3.345287 3.447625,5.031024 0.400809,1.173901 0.460337,1.676144 0.526699,4.443866 l 0.07482,3.120387 -1.250019,2.718755 c -1.57117,3.41725 -1.584012,3.468154 -0.952177,3.774288 1.616577,0.783265 2.490201,0.974599 5.113204,1.119848 1.509235,0.08358 2.921341,0.07809 3.224109,-0.01251 0.683335,-0.204476 1.738497,-1.140275 5.783209,-5.129009 2.243837,-2.212772 3.589331,-3.395056 4.33138,-3.805968 l 1.076427,-0.596078 3.325684,0 3.325681,0 1.044379,0.652227 c 2.104318,1.314173 4.476772,4.158651 5.599349,6.713408 1.045056,2.378335 1.362486,4.060297 1.464333,7.759045 0.13199,4.793406 -0.194166,6.666984 -1.709705,9.82128 -0.817041,1.700508 -1.89183,3.208705 -3.279225,4.60157 -1.914519,1.922066 -2.233534,2.041532 -5.864508,2.196128 -3.369057,0.143448 -3.198389,0.178422 -5.001422,-1.024973 -1.910478,-1.275107 -3.818711,-3.462523 -4.807898,-5.511323 -0.741796,-1.5364 -1.616812,-4.972991 -1.616812,-6.349969 l 0,-0.516541 2.165305,0 2.165307,0 0.584654,1.51312 c 0.841025,2.176616 1.666416,3.677758 2.383264,4.334449 1.675783,1.535151 4.051237,2.094555 5.53672,1.303859 1.876133,-0.998633 3.533212,-3.557511 3.859101,-5.959273 0.227337,-1.675434 0.226893,-5.730842 -8.75e-4,-7.244639 -0.351206,-2.335035 -2.057212,-5.094427 -3.625042,-5.863347 -1.070162,-0.524846 -3.365292,-0.600478 -4.209898,-0.138724 -0.620333,0.339141 -3.483257,3.083606 -6.23809,5.979975 -2.663365,2.800206 -4.102007,3.505475 -7.155683,3.507956 -0.744534,5.49e-4 -1.998486,0.05346 -2.786565,0.11749 l -1.432874,0.116399 -0.07967,3.779943 c -0.09181,4.356293 -0.233718,5.092744 -1.488197,7.723222 -0.680132,1.426147 -1.102954,2.027232 -2.329657,3.311858 -0.890093,0.932116 -2.010903,1.881759 -2.759954,2.338459 l -1.261158,0.76898 -3.133426,-0.0134 c -2.537289,-0.01084 -3.300646,-0.07564 -4.012361,-0.340517 z"
       id="path3016"
       inkscape:connector-curvature="0" />
    <path
       style="fill:#000000;fill-opacity:1"
       d="M 17.272575,62.804762 C 16.593826,62.630578 14.88405,61.823893 13.973466,61.248215 10.805408,59.245349 6.7956178,55.104224 4.373914,51.334239 3.1740255,49.466313 1.4230971,45.937853 1.2679863,45.075191 c -0.1488668,-0.827933 0.196655,-1.282019 1.7010499,-2.235512 1.8899099,-1.197841 1.7546292,-1.266938 4.0324381,2.059676 2.884548,4.212719 3.6879707,5.241332 5.8610987,7.503888 1.909637,1.988219 3.278818,3.099467 4.838672,3.927142 0.708532,0.375952 0.967915,0.407025 2.822168,0.338047 2.317276,-0.08622 2.754804,-0.270808 4.010504,-1.692149 1.083202,-1.226087 1.391062,-2.005642 1.529887,-3.873942 0.153373,-2.064048 -0.170005,-5.591775 -0.604224,-6.591495 -0.411622,-0.947693 -1.477876,-2.225858 -2.166988,-2.597664 -0.337939,-0.182332 -1.43124,-0.362373 -2.95216,-0.486154 L 17.924966,41.230446 16.93957,39.545667 c -0.541967,-0.92663 -0.985394,-1.732179 -0.985394,-1.790109 0,-0.05793 1.364545,-0.830264 3.03232,-1.716298 2.583122,-1.372329 3.188679,-1.77726 4.087839,-2.733507 0.580535,-0.617395 1.289032,-1.568959 1.574436,-2.114588 0.480874,-0.919321 0.519054,-1.133237 0.520779,-2.917841 0.0024,-2.381343 -0.27985,-3.126309 -1.759305,-4.645117 -1.913587,-1.964491 -3.304427,-2.52492 -5.073235,-2.044227 -1.534369,0.41698 -2.242791,0.941864 -6.361782,4.713569 -1.076572,0.985803 -2.0849082,1.792366 -2.2407506,1.792366 -0.3887464,0 -2.9034301,-2.521661 -3.0270156,-3.035414 -0.127937,-0.531844 0.087132,-0.945656 1.4258969,-2.743546 1.5294914,-2.054026 4.0802193,-4.528376 5.6792133,-5.509154 2.152455,-1.320257 3.295655,-1.60602 6.084724,-1.520983 l 2.341581,0.07139 1.557838,0.80541 c 1.286417,0.665084 1.852771,1.111657 3.250603,2.563126 1.866032,1.937635 2.427899,2.76624 3.104221,4.577917 0.413744,1.108304 0.459803,1.504169 0.525429,4.516141 l 0.07193,3.301352 -1.177195,2.543275 c -0.647458,1.3988 -1.187856,2.7916 -1.200885,3.095109 -0.0221,0.514928 0.04992,0.580844 1.076882,0.985594 1.275219,0.502588 3.454015,0.800422 5.871165,0.802563 l 1.698134,0.0016 0.938666,-0.767523 c 0.822437,-0.672486 3.737118,-3.440537 6.620267,-6.287217 0.514448,-0.507943 1.463696,-1.273375 2.10944,-1.700958 l 1.174079,-0.777432 3.517609,-0.0021 3.517609,-0.0021 1.140738,0.801101 c 3.617519,2.540458 5.991096,6.546034 6.664789,11.247289 0.261162,1.822484 0.226159,6.828859 -0.05942,8.498813 -0.611543,3.576026 -2.713472,7.261462 -5.615501,9.845996 -1.175998,1.047336 -2.051938,1.283972 -5.313227,1.43537 -3.003193,0.139418 -3.122453,0.105793 -5.278563,-1.487996 -3.235371,-2.391586 -5.407474,-6.44805 -5.814688,-10.859099 l -0.106348,-1.151985 2.226767,0.05154 2.226767,0.05154 0.851526,2.059191 c 1.223291,2.958204 1.878167,3.788501 3.700005,4.69111 2.142739,1.061595 3.854908,0.719512 5.471229,-1.093128 1.019728,-1.143587 1.450532,-1.893153 1.933735,-3.364567 0.349216,-1.063403 0.392518,-1.568503 0.400957,-4.676917 0.0107,-3.94217 -0.123505,-4.674505 -1.242133,-6.778056 -0.823863,-1.549257 -2.044234,-2.731482 -3.108152,-3.010994 -1.247882,-0.327844 -2.703904,-0.25796 -3.552188,0.170493 -0.446609,0.225574 -2.235059,1.88019 -4.448993,4.116067 -3.196401,3.228081 -3.881877,3.831528 -5.017606,4.417173 -1.314382,0.677771 -1.318154,0.678479 -4.703466,0.881817 l -3.38803,0.2035 -0.102326,3.759875 c -0.05629,2.067931 -0.202859,4.172544 -0.325728,4.676916 -0.122869,0.504374 -0.620296,1.780359 -1.105392,2.835522 -0.781413,1.699693 -1.065009,2.107549 -2.486858,3.576464 -0.890431,0.919906 -2.11174,1.964169 -2.743479,2.345772 l -1.138615,0.687692 -3.168159,-0.02127 c -1.742488,-0.01172 -3.326368,-0.06189 -3.519733,-0.111514 z"
       id="path3018"
       inkscape:connector-curvature="0" />
    <path
       style="fill:#000000;fill-opacity:1"
       d="M 16.028275,62.330364 C 12.556814,60.861197 7.9827553,56.665446 4.787007,52.018833 c -1.3095458,-1.904079 -3.59891,-6.498902 -3.59891,-7.22312 0,-0.318744 0.2026001,-0.694766 0.5713066,-1.060331 0.7084951,-0.702461 2.410423,-1.706419 2.8927539,-1.706419 0.2640817,0 1.1356954,1.088788 3.2872705,4.106335 2.271533,3.185786 3.409454,4.595273 5.075977,6.287361 2.318995,2.354567 3.281823,3.126265 4.813221,3.857762 0.91129,0.435292 1.103431,0.461006 2.587292,0.346272 0.881593,-0.06816 1.912706,-0.20987 2.291363,-0.314898 0.967863,-0.268455 2.437816,-1.900879 2.926834,-3.250337 0.344258,-0.949978 0.368459,-1.289962 0.289209,-4.062971 -0.05897,-2.063176 -0.177769,-3.329368 -0.373326,-3.978757 -0.374838,-1.244724 -1.804677,-2.912667 -2.71138,-3.162888 -0.592185,-0.163426 -3.857666,-0.561512 -4.606042,-0.561512 -0.214543,0 -0.61503,-0.50763 -1.206456,-1.529222 -0.486918,-0.841067 -0.931375,-1.654477 -0.987681,-1.807571 -0.07726,-0.210052 0.622334,-0.678642 2.851106,-1.909689 3.379659,-1.866733 4.878154,-3.186437 5.75448,-5.067892 0.461041,-0.989846 0.486257,-1.169296 0.42526,-3.026241 -0.05752,-1.750864 -0.11907,-2.070516 -0.544572,-2.827878 -0.600369,-1.068617 -2.215187,-2.576709 -3.435307,-3.208263 -0.788028,-0.407895 -1.086114,-0.466252 -1.959575,-0.383615 -1.761823,0.166684 -2.814497,0.873241 -7.130855,4.786239 -1.06351,0.964126 -2.0786046,1.756503 -2.2557684,1.760837 -0.4546454,0.01112 -3.1057245,-2.748028 -3.1057245,-3.23233 0,-0.634249 1.3767706,-2.591756 3.2501444,-4.621094 2.0145855,-2.182302 3.3443425,-3.233855 5.3035865,-4.193997 1.367145,-0.669981 1.399798,-0.675999 4.065281,-0.7491 2.477744,-0.06795 2.757984,-0.04186 3.59746,0.334929 2.636008,1.183149 5.760062,4.20818 6.900274,6.681565 0.780209,1.69246 0.936396,2.665862 0.979569,6.105007 l 0.03408,2.714908 -1.096545,2.472043 c -0.6031,1.359625 -1.135819,2.724551 -1.183819,3.033171 -0.07892,0.507411 -0.0225,0.591229 0.589318,0.875605 1.103176,0.512751 2.985104,0.843661 5.510729,0.968985 l 2.373121,0.117757 1.582078,-1.418952 c 0.870144,-0.780426 2.756302,-2.563912 4.191463,-3.963305 1.43516,-1.399395 3.146536,-2.916933 3.803055,-3.372311 l 1.193669,-0.827957 3.633578,0 3.633578,0 1.052314,0.745596 c 2.998535,2.124556 5.328612,5.589521 6.343778,9.433577 0.347976,1.317653 0.388463,1.916107 0.397059,5.869072 0.008,3.687867 -0.04114,4.588048 -0.303114,5.550095 -0.433748,1.592862 -1.378368,3.695788 -2.333403,5.194654 -1.032027,1.619702 -3.187748,3.870589 -4.193402,4.378525 -1.418496,0.716456 -6.309312,1.004238 -7.597001,0.447019 -2.001427,-0.866075 -4.845901,-3.74347 -6.001981,-6.071441 -0.864385,-1.740599 -1.570993,-4.092726 -1.76538,-5.876535 l -0.144906,-1.329711 2.262423,0 2.262422,0 0.267259,0.687783 c 0.630521,1.622627 1.841094,4.038583 2.327003,4.644034 1.261411,1.571731 3.913945,2.395798 5.577728,1.732843 1.608387,-0.64088 3.42354,-3.14674 3.92539,-5.419083 0.275238,-1.246255 0.22937,-6.647563 -0.06892,-8.1163 -0.428933,-2.11199 -1.976793,-4.495076 -3.413063,-5.25476 -0.878084,-0.46444 -2.228583,-0.623416 -3.255726,-0.383246 -1.084329,0.253538 -1.733022,0.791819 -5.845235,4.850328 -2.579226,2.545541 -3.512435,3.348651 -4.474855,3.851007 -1.375044,0.717732 -1.692384,0.777451 -5.302423,0.997857 -1.429004,0.08725 -2.642353,0.204707 -2.696331,0.261025 -0.05397,0.05633 -0.16435,1.821415 -0.24527,3.922436 -0.166195,4.315054 -0.293361,4.932726 -1.541649,7.488206 -0.638456,1.307043 -1.119726,1.977555 -2.311824,3.220863 -0.828032,0.863602 -2.01903,1.91591 -2.646659,2.33846 l -1.141148,0.768271 -3.341412,-0.003 -3.341411,-0.003 -1.420088,-0.601 z"
       id="path3020"
       inkscape:connector-curvature="0" />
    <path
       style="fill:#000000;fill-opacity:1"
       d="M 15.866282,62.29378 C 12.165327,60.611389 7.4996384,56.210143 4.4941627,51.566206 3.0512327,49.336651 1.188097,45.510233 1.188097,44.77637 c 0,-0.354293 0.2068128,-0.698765 0.6968352,-1.160667 0.771194,-0.726935 2.2769982,-1.58674 2.7789127,-1.58674 0.2143349,0 1.3534939,1.39976 3.3803904,4.153707 4.0447777,5.495643 6.9822387,8.552898 9.4895057,9.876493 0.932297,0.492165 1.032115,0.505805 3.006725,0.410882 2.362184,-0.113551 2.776386,-0.280402 3.849006,-1.550485 1.458315,-1.72678 1.614983,-2.442401 1.418162,-6.477783 -0.122656,-2.514785 -0.212945,-3.177056 -0.528673,-3.877862 -0.409074,-0.908002 -1.404897,-2.055741 -2.117535,-2.440568 -0.520257,-0.280942 -2.640226,-0.64461 -3.757692,-0.64461 -1.246741,0 -1.538455,-0.212084 -2.431505,-1.76778 -0.455238,-0.793027 -0.874467,-1.573983 -0.931618,-1.735458 -0.0801,-0.226327 0.431725,-0.599703 2.233998,-1.629689 3.784081,-2.162573 5.156645,-3.302606 6.163127,-5.119005 0.557733,-1.006544 0.568801,-1.070313 0.537819,-3.098852 -0.03759,-2.461501 -0.278337,-3.032196 -1.967356,-4.663731 -1.498982,-1.447967 -2.380164,-1.851462 -3.853605,-1.764578 -1.784928,0.105256 -2.688978,0.699348 -7.331404,4.817851 -0.966827,0.857717 -1.9053829,1.562394 -2.0856809,1.565951 -0.4770951,0.0094 -3.100026,-2.710022 -3.100026,-3.214084 0,-1.239421 4.7710439,-6.648185 7.1193599,-8.070969 2.21192,-1.340146 2.518134,-1.422534 5.607535,-1.508728 l 2.794948,-0.07799 1.426638,0.754738 c 2.82313,1.493524 5.628953,4.603756 6.626945,7.345913 0.30109,0.827293 0.396612,1.651344 0.510554,4.404372 0.137162,3.314077 0.13151,3.404499 -0.263703,4.218397 -0.466072,0.959823 -1.758792,4.124273 -1.928027,4.719622 -0.09069,0.319068 -0.01029,0.459402 0.385558,0.672986 0.948816,0.511927 2.641342,0.847128 5.299067,1.049476 l 2.666067,0.20298 0.998346,-0.889177 c 0.54909,-0.489045 2.465193,-2.282612 4.258007,-3.985705 1.792813,-1.703093 3.772992,-3.456936 4.400397,-3.897431 l 1.140738,-0.800899 3.729325,0 3.729326,0 1.453854,1.146303 c 2.835804,2.235915 4.762289,5.232574 5.865981,9.124574 0.293729,1.035786 0.33839,1.793569 0.340496,5.777368 0.0023,4.300457 -0.02315,4.67015 -0.409207,5.952878 -0.485116,1.611836 -1.384556,3.531283 -2.351333,5.017859 -0.955631,1.469439 -3.089906,3.653965 -4.037522,4.132587 -0.961619,0.485699 -2.789481,0.748348 -5.260156,0.755849 -1.759312,0.0053 -1.926888,-0.02763 -2.956718,-0.581784 -1.393174,-0.74967 -3.809422,-3.10372 -4.830367,-4.706028 -1.219388,-1.913752 -2.085461,-4.545151 -2.468228,-7.499269 l -0.101008,-0.779487 2.375198,0 c 1.443141,0 2.375197,0.07093 2.375197,0.180767 0,0.475854 2.019387,4.5024 2.586505,5.157353 1.508852,1.742531 4.278657,2.385771 5.919227,1.374637 1.284707,-0.791802 2.562333,-2.555656 3.201684,-4.420151 0.436718,-1.273563 0.44277,-7.306355 0.0091,-9.044803 -0.534353,-2.141942 -1.941051,-4.174082 -3.407951,-4.923185 -0.792668,-0.404793 -1.100959,-0.46043 -2.223555,-0.401283 -1.163917,0.06132 -1.403892,0.141471 -2.243901,0.74943 -0.517334,0.374418 -2.385369,2.082646 -4.151189,3.796061 -3.325581,3.226887 -4.234259,3.983624 -5.386792,4.486065 -0.708892,0.309035 -2.457713,0.551947 -5.511881,0.765601 -1.648343,0.115309 -1.810845,0.1598 -1.88123,0.515076 -0.04237,0.213878 -0.156244,1.95701 -0.253046,3.873631 -0.195768,3.876079 -0.364467,4.677683 -1.483757,7.050382 -0.881177,1.867944 -2.788489,4.069504 -4.753418,5.486755 l -1.307941,0.943387 -3.487006,-0.0022 -3.487004,-0.0022 -1.406294,-0.639276 z"
       id="path3022"
       inkscape:connector-curvature="0" />
    <path
       style="fill:#000000;fill-opacity:1"
       d="M 15.50195,62.135839 C 11.618088,60.151751 7.1861778,55.887571 4.3259442,51.382798 3.1400284,49.515021 1.188097,45.42149 1.188097,44.802198 c 0,-0.626942 0.4590908,-1.149386 1.8113089,-2.061262 1.5712453,-1.059575 1.7992464,-1.001139 3.12571,0.801148 5.6453481,7.670418 8.6528321,10.953569 11.3232461,12.36114 1.223378,0.644838 1.240182,0.64791 2.90048,0.530098 2.413039,-0.171228 2.804426,-0.318645 3.819727,-1.438721 1.513438,-1.669621 1.543161,-1.775277 1.53205,-5.445889 -0.01132,-3.738786 -0.189547,-4.706043 -1.098135,-5.959646 -0.955476,-1.318295 -1.814861,-1.707364 -4.341856,-1.965679 -1.861421,-0.190279 -2.145586,-0.265755 -2.499143,-0.663792 -0.415511,-0.467782 -1.807309,-2.888992 -1.807309,-3.14404 0,-0.0804 1.048127,-0.771595 2.329172,-1.535964 1.281046,-0.76437 2.670418,-1.629438 3.087493,-1.922371 1.176446,-0.82628 2.470039,-2.202422 3.033092,-3.22664 0.467231,-0.849917 0.512207,-1.085165 0.513712,-2.687026 0.0024,-2.443121 -0.288092,-3.238538 -1.711217,-4.687271 -1.441893,-1.467845 -2.368645,-1.945876 -3.793862,-1.956925 -1.796214,-0.01392 -2.653715,0.505004 -6.90982,4.181594 -1.340583,1.158048 -2.5849389,2.106313 -2.7652369,2.107252 -0.48039,0.0025 -3.100026,-2.717534 -3.100026,-3.218842 0,-0.662344 1.3641116,-2.611139 3.246952,-4.638658 2.0945169,-2.255462 3.3629629,-3.285317 5.1708219,-4.198209 l 1.338385,-0.675828 2.910099,-0.07301 2.910096,-0.07301 1.244298,0.653785 c 3.437964,1.8064 6.567946,5.639961 7.061657,8.649029 0.09931,0.605248 0.230385,2.298984 0.29129,3.763858 l 0.110733,2.663405 -1.074424,2.530523 c -1.381859,3.254608 -1.428772,3.49258 -0.75968,3.853584 1.074206,0.57958 7.279299,1.433614 7.870021,1.083187 0.128795,-0.07639 1.955148,-1.748329 4.058559,-3.715384 2.103412,-1.967055 4.424505,-4.050887 5.157986,-4.630737 l 1.333602,-1.054271 3.845805,-3.28e-4 3.845804,-3.28e-4 1.210991,0.93667 c 2.589005,2.002527 4.621232,4.92573 5.75444,8.27732 l 0.636398,1.882226 -5.5e-5,4.95203 c -5.1e-5,4.733113 -0.01827,5.004732 -0.412156,6.144186 -1.518685,4.39335 -4.642403,8.471288 -7.104134,9.274266 -0.609299,0.198745 -1.851493,0.333208 -3.667146,0.396964 l -2.74573,0.09642 -1.078414,-0.599713 c -0.593129,-0.32984 -1.746923,-1.252291 -2.563988,-2.049889 -2.493669,-2.434255 -3.759594,-4.843758 -4.477581,-8.522415 -0.199977,-1.024593 -0.363594,-1.994364 -0.363594,-2.15505 0,-0.252676 0.317102,-0.292153 2.346749,-0.292153 l 2.346746,0 0.468946,1.151222 c 0.613078,1.50506 2.085276,4.078863 2.603237,4.551165 1.193644,1.08842 3.314588,1.661629 4.702775,1.27098 1.092851,-0.30754 2.749928,-2.06785 3.542994,-3.763719 l 0.600391,-1.28386 0,-4.034988 c 0,-3.726594 -0.03058,-4.126102 -0.400081,-5.227142 -1.113428,-3.317751 -3.359092,-5.053658 -5.967798,-4.613136 -1.21353,0.204924 -1.641442,0.536392 -5.860356,4.539532 -1.975911,1.874851 -3.988083,3.647281 -4.471496,3.93873 -1.098339,0.662193 -1.948423,0.848097 -5.329957,1.165607 -1.481236,0.139082 -2.731335,0.29271 -2.778,0.341397 -0.04666,0.04868 -0.202004,1.834033 -0.345201,3.967437 -0.21795,3.247094 -0.333773,4.094445 -0.711072,5.202093 -0.997123,2.927298 -2.673824,5.199608 -5.397337,7.314619 l -1.377569,1.069786 -3.645109,0 -3.64511,0 -1.569321,-0.801696 0,0 z"
       id="path3024"
       inkscape:connector-curvature="0" />
    <path
       style="fill:#000000;fill-opacity:1"
       d="M 15.07992,61.918894 C 11.121982,59.745957 6.85164,55.527036 4.1149535,51.085962 2.9394181,49.178314 1.3399186,45.770951 1.2343063,44.949409 c -0.080936,-0.629582 -0.02367,-0.777748 0.4965551,-1.284782 0.8114953,-0.79092 2.2636121,-1.631874 2.821411,-1.633944 0.393653,-0.0016 0.9141637,0.586996 3.4458876,3.895711 4.578654,5.983852 7.253716,8.751884 9.703754,10.041004 0.704303,0.370579 0.971597,0.402951 2.724692,0.33 2.210633,-0.09198 2.682723,-0.275645 3.799427,-1.478052 1.298595,-1.39826 1.308615,-1.440759 1.307669,-5.545746 -8.8e-4,-3.470939 -0.02339,-3.720315 -0.420015,-4.637976 -0.514831,-1.191127 -1.688797,-2.310721 -2.700811,-2.57572 -0.410099,-0.107392 -1.497122,-0.291611 -2.415607,-0.409387 -0.918486,-0.117774 -1.828182,-0.317712 -2.021547,-0.444305 -0.348686,-0.228276 -2.021546,-3.002596 -2.021546,-3.352592 0,-0.100267 1.242664,-0.955275 2.761476,-1.900018 3.339276,-2.077119 4.367008,-2.926195 5.292849,-4.37277 0.845615,-1.321221 1.071816,-2.742404 0.746615,-4.690822 -0.241194,-1.445069 -0.714258,-2.287415 -1.919665,-3.418169 -1.107881,-1.039269 -1.969315,-1.477257 -3.103242,-1.57781 -1.735487,-0.153896 -2.939437,0.498481 -6.502726,3.523592 -3.064585,2.60173 -3.228013,2.718355 -3.6532348,2.607002 -0.5315314,-0.139189 -2.9387651,-2.679331 -2.9387651,-3.101019 0,-0.899975 1.4648119,-2.91092 3.9831379,-5.46819 1.906588,-1.936072 2.703857,-2.55295 4.552517,-3.522464 l 1.240509,-0.650574 2.995144,-0.05244 2.995147,-0.05245 1.360012,0.811879 c 3.499975,2.089359 6.272182,5.571048 6.797773,8.537501 0.0989,0.558222 0.19481,2.351709 0.213126,3.985527 l 0.0333,2.970578 -0.949367,2.185538 c -0.534386,1.230208 -0.956999,2.472852 -0.966827,2.842832 -0.01677,0.631105 0.01756,0.669255 0.861474,0.957518 1.16156,0.396763 4.505379,0.892304 6.00872,0.89047 l 1.198534,-0.0016 4.099801,-3.753217 c 2.254894,-2.064266 4.599676,-4.16822 5.210632,-4.675451 l 1.110828,-0.922238 3.948006,0 3.948006,0 1.124882,0.892661 c 1.974356,1.566771 3.820897,3.851606 4.896959,6.059303 0.216546,0.444279 0.669302,1.599751 1.006123,2.567719 l 0.612403,1.75994 -0.06955,4.952031 c -0.07707,5.488852 -0.06699,5.429528 -1.415871,8.328799 -1.265266,2.719575 -3.707867,5.720051 -5.378643,6.607093 -0.902994,0.479412 -2.815285,0.745537 -5.357222,0.745537 l -2.19288,0 -1.299544,-0.906877 c -1.655373,-1.155139 -3.94419,-3.637378 -4.756774,-5.15871 -0.745856,-1.396402 -1.463092,-3.553896 -1.809575,-5.443324 -0.412854,-2.251351 -0.603074,-2.063275 2.086775,-2.063275 l 2.336522,0 1.005924,2.063347 c 1.398857,2.869336 1.99104,3.656035 3.226963,4.286935 1.368467,0.698559 3.044405,0.817609 4.029631,0.286246 0.973271,-0.524919 2.221218,-1.938309 2.958221,-3.350407 l 0.63016,-1.207386 0,-4.032318 c 0,-3.150343 -0.06127,-4.250211 -0.280108,-5.028504 -0.615186,-2.187858 -2.052752,-4.027662 -3.641854,-4.660858 -1.132729,-0.45135 -2.787128,-0.312448 -3.735968,0.313667 -0.380563,0.251125 -2.313567,1.965267 -4.295561,3.809205 -1.981994,1.843937 -3.959594,3.591645 -4.394666,3.883793 -1.137586,0.763883 -2.055663,0.996712 -5.345282,1.355593 -2.704057,0.295 -2.929182,0.3478 -3.000454,0.70373 -0.04238,0.211641 -0.20522,1.994211 -0.361863,3.961267 -0.313919,3.942018 -0.591375,5.091981 -1.7502,7.254004 -0.780493,1.456163 -2.621128,3.530139 -4.38147,4.936913 l -1.269475,1.014498 -3.767279,-0.004 -3.76728,-0.004 -1.841083,-1.010768 z"
       id="path3026"
       inkscape:connector-curvature="0" />
    <path
       style="fill:#000000;fill-opacity:1"
       d="M 15.002006,61.926035 C 12.548007,60.507656 10.916319,59.18386 8.4708426,56.627279 5.3924245,53.409001 3.2094455,50.12307 1.7140949,46.456686 0.84427866,44.324022 0.96572686,43.974089 3.0235157,42.683809 c 1.7238654,-1.080897 1.5656177,-1.181911 4.9908915,3.185749 4.8791228,6.221501 7.2663058,8.704766 9.4734538,9.854755 1.256348,0.654594 1.286597,0.660348 2.812587,0.535001 0.84842,-0.06969 1.858997,-0.213519 2.245727,-0.319614 0.942159,-0.25847 2.440848,-1.818166 2.704435,-2.814521 0.109836,-0.415179 0.192833,-2.206488 0.191204,-4.126692 -0.0033,-3.781646 -0.148093,-4.422049 -1.27956,-5.655884 -0.850156,-0.927075 -1.593473,-1.232141 -3.901306,-1.601157 -1.831942,-0.29292 -2.167252,-0.401294 -2.548906,-0.823822 -0.510249,-0.564893 -1.757866,-2.722211 -1.757866,-3.039614 0,-0.118807 1.27238,-1.028559 2.827512,-2.021666 3.438804,-2.196023 4.694946,-3.3285 5.437455,-4.902147 0.463435,-0.982184 0.543897,-1.358998 0.543897,-2.547136 0,-0.766933 -0.08248,-1.714022 -0.183295,-2.104643 -0.503945,-1.952656 -2.639263,-3.96428 -4.601997,-4.335421 -1.651045,-0.312201 -3.125706,0.495546 -7.451413,4.081519 -1.353558,1.122089 -2.5908316,2.040439 -2.7494984,2.04078 -0.6707158,0.0015 -3.1393535,-2.613505 -3.1393535,-3.325411 0,-0.836306 1.9670442,-3.401803 4.4892339,-5.855042 1.463525,-1.423513 2.252501,-2.025289 3.772738,-2.877573 l 1.3184,-0.739128 3.062311,-0.099 3.062312,-0.099 1.332354,0.802711 c 3.475857,2.094119 6.229647,5.453602 6.854331,8.361931 0.0999,0.46507 0.235283,2.21147 0.300863,3.880886 l 0.119239,3.035301 -0.924124,2.231751 c -1.07949,2.606953 -1.268808,3.542236 -0.773051,3.819063 0.579119,0.323373 2.886935,0.754272 5.259497,0.982014 l 2.297147,0.220503 3.415918,-3.1189 c 1.878756,-1.715394 4.237838,-3.835197 5.242403,-4.710675 l 1.826483,-1.591778 4.037445,0 4.037442,0 1.114303,0.925121 c 2.663037,2.210921 4.404777,4.716009 5.724042,8.2327 l 0.717717,1.913186 -0.07133,5.148043 -0.07134,5.148042 -0.562656,1.481517 c -0.835025,2.198682 -2.234692,4.515479 -3.746518,6.201418 -2.185846,2.43758 -3.317499,2.859089 -7.682929,2.861671 l -2.343329,0.0016 -0.996617,-0.675659 c -0.548139,-0.371615 -1.793844,-1.506454 -2.768233,-2.521868 -1.478798,-1.54106 -1.892303,-2.10388 -2.501802,-3.405179 -0.81952,-1.749708 -1.57656,-4.329792 -1.735537,-5.914925 l -0.105768,-1.0546 2.387568,0 2.38757,0 1.08715,2.194507 c 1.326234,2.677123 1.981303,3.503466 3.288987,4.148921 1.21649,0.600446 2.956353,0.694134 3.843682,0.206976 0.822819,-0.451738 2.086124,-1.846313 2.831071,-3.12525 l 0.659679,-1.132546 0.05617,-2.770158 c 0.115162,-5.680596 -0.311087,-7.650417 -2.096536,-9.688687 -1.0279,-1.173451 -2.072017,-1.664393 -3.496477,-1.644044 -1.561138,0.0223 -1.788959,0.182621 -6.850986,4.821024 -4.55006,4.169277 -4.559506,4.174164 -9.197964,4.76054 -1.527382,0.193086 -2.818424,0.394224 -2.868983,0.446974 -0.05056,0.05274 -0.2463,1.77513 -0.434982,3.827511 -0.188682,2.052382 -0.467132,4.185538 -0.618775,4.740349 -0.726977,2.659721 -2.665258,5.393285 -5.484943,7.73543 l -1.285969,1.068095 -3.899738,-0.0021 -3.899736,-0.0021 -1.74321,-1.007554 z"
       id="path3028"
       inkscape:connector-curvature="0" />
    <path
       style="fill:#000000;fill-opacity:1"
       d="M 14.851222,61.875826 C 12.461735,60.419095 11.061265,59.301897 8.9473016,57.166078 6.8622574,55.059477 5.4114742,53.245618 4.0331097,51.02205 2.7220728,48.907095 1.3417531,45.892037 1.2358807,44.912014 1.1522463,44.13784 1.1801234,44.078506 1.9154761,43.465575 c 1.1093976,-0.924707 2.0346597,-1.436612 2.5966536,-1.436612 0.4239081,0 0.8985886,0.508973 3.4583053,3.708148 5.247162,6.557987 7.258597,8.663982 9.426289,9.869447 1.07162,0.595932 1.074938,0.596471 3.050152,0.494972 2.197678,-0.112929 2.470423,-0.212518 3.563636,-1.301243 1.292715,-1.287404 1.318783,-1.395371 1.334392,-5.526687 0.01381,-3.651719 0.01167,-3.672818 -0.473898,-4.704456 -0.81376,-1.72892 -1.715365,-2.251102 -4.873737,-2.822705 -1.68982,-0.305826 -1.892779,-0.387084 -2.40228,-0.961803 -0.546271,-0.616193 -1.640813,-2.57311 -1.640813,-2.933585 0,-0.100799 1.233644,-0.997127 2.741432,-1.991823 3.298933,-2.176322 4.784541,-3.529432 5.466969,-4.97938 0.438972,-0.932679 0.491787,-1.238617 0.481637,-2.789933 -0.0094,-1.435144 -0.08134,-1.883043 -0.408007,-2.5401 -0.988751,-1.988727 -3.101114,-3.51238 -4.869497,-3.51238 -1.467916,0 -2.620523,0.690423 -7.00125,4.193827 -1.98733,1.589329 -2.449716,1.882266 -2.8185855,1.785671 -0.6995207,-0.183181 -2.9093914,-2.616885 -2.9093914,-3.204077 0,-1.295156 4.2842409,-6.238348 6.9385089,-8.005708 2.217307,-1.476408 2.414347,-1.533344 5.745094,-1.660056 l 3.049302,-0.116005 1.549529,0.974836 c 3.061887,1.926284 5.709581,5.069934 6.443126,7.650025 0.244064,0.858446 0.392987,2.156077 0.49834,4.342264 l 0.150253,3.117944 -0.866873,2.109197 c -0.610408,1.485198 -0.874536,2.379139 -0.892783,3.021635 -0.02534,0.892419 -0.01206,0.917252 0.605529,1.132078 0.615967,0.214265 3.491197,0.659929 5.785767,0.896805 l 1.143612,0.118056 1.569488,-1.437982 c 0.863219,-0.790891 3.196338,-2.901235 5.184707,-4.68965 l 3.615223,-3.251666 4.107434,-0.0039 4.107436,-0.0039 0.839525,0.642989 c 1.277281,0.978263 3.697706,3.73452 4.438559,5.054399 0.363292,0.647229 1.022471,2.071438 1.46484,3.164906 l 0.804307,1.988124 -0.02098,5.183637 c -0.019,4.695171 -0.05388,5.273958 -0.370047,6.142133 -1.023703,2.810983 -2.709975,5.567749 -4.522317,7.393219 -1.983887,1.998254 -3.037384,2.343674 -7.147922,2.343674 l -2.475024,0 -0.964479,-0.668304 C 46.887174,59.884128 45.65593,58.749287 44.681542,57.729827 43.212964,56.193318 42.784285,55.609602 42.175405,54.317292 41.297482,52.453959 40.589202,50.070879 40.443082,48.48872 l -0.10636,-1.151654 2.425035,0.05121 2.425035,0.05121 1.072649,2.109197 c 1.334665,2.624408 2.439882,3.872508 3.803256,4.294942 1.184429,0.366989 2.283261,0.369561 3.119948,0.0072 0.817686,-0.35403 2.453685,-2.150824 3.118177,-3.424654 l 0.503054,-0.964347 -0.0245,-3.670645 c -0.01349,-2.018855 -0.107398,-4.113565 -0.20872,-4.65491 -0.315782,-1.687214 -1.0221,-3.061979 -2.116114,-4.118759 -1.080706,-1.043918 -1.918539,-1.407975 -3.240318,-1.407975 -1.355128,0 -1.710286,0.249385 -6.481877,4.551437 -4.821323,4.346894 -4.777876,4.323966 -9.528028,5.027805 l -2.811089,0.416556 -0.398705,3.759874 c -0.45575,4.297803 -0.894507,6.006801 -2.035594,7.928837 -0.836012,1.408169 -2.427589,3.186394 -4.156198,4.643603 l -1.185999,0.999791 -4.023652,-0.007 -4.023653,-0.007 -1.718207,-1.047488 z"
       id="path3030"
       inkscape:connector-curvature="0" />
    <path
       style="fill:#000000;fill-opacity:1"
       d="M 14.886347,61.960775 C 12.444546,60.423356 11.060968,59.312118 9.0335629,57.260032 6.8105822,55.009992 5.4932659,53.380295 4.1178302,51.178611 2.839556,49.132458 1.3639931,45.958221 1.2389538,44.985562 c -0.118488,-0.921695 0.1015249,-1.230758 1.602423,-2.250997 1.8144813,-1.233398 1.6620947,-1.327373 5.473264,3.375237 1.8189942,2.244462 4.3098522,5.122595 5.5352412,6.395848 1.851183,1.923491 2.456021,2.432596 3.576398,3.010327 l 1.34842,0.69532 1.952337,-0.197693 c 1.720533,-0.174217 2.038353,-0.2621 2.676778,-0.740166 0.398442,-0.298361 0.961751,-0.890088 1.251799,-1.314946 l 0.527361,-0.772471 0.0596,-3.526578 c 0.06685,-3.954962 -0.04068,-4.646709 -0.90699,-5.834535 C 23.611177,42.831649 22.877924,42.471415 20.447088,41.91456 19.37788,41.669628 18.322792,41.389511 18.10245,41.292078 17.66617,41.099167 15.954228,38.453485 15.954191,37.9721 c -1.5e-5,-0.180447 1.085043,-1.044106 2.765105,-2.200901 3.199328,-2.202876 4.761144,-3.642747 5.398309,-4.976811 0.383891,-0.803772 0.449853,-1.186689 0.448389,-2.602926 -0.0013,-1.365701 -0.07583,-1.823336 -0.419155,-2.577562 -0.767705,-1.686526 -2.589441,-3.149008 -4.341323,-3.485201 -1.361392,-0.261255 -2.602343,0.413355 -7.001468,3.806165 -1.536832,1.185279 -2.9648304,2.155051 -3.1733273,2.155051 -0.2390265,0 -0.8620057,-0.510442 -1.6861659,-1.381572 -1.0014182,-1.05849 -1.307081,-1.502114 -1.307081,-1.897027 0,-1.296861 4.1780682,-6.137404 6.8815962,-7.972744 2.294383,-1.557582 2.452375,-1.603079 5.950829,-1.713699 l 3.076265,-0.09728 1.857439,1.288477 c 2.811355,1.950198 5.146545,4.732947 5.908764,7.041233 0.329225,0.997015 0.553553,3.145367 0.61865,5.924758 l 0.05155,2.200902 -0.766103,1.834086 c -0.568577,1.361198 -0.772356,2.093589 -0.790359,2.840569 l -0.02425,1.006489 0.878934,0.230701 c 0.483414,0.126885 2.136604,0.399802 3.673759,0.606477 l 2.794824,0.375777 0.457228,-0.441634 c 0.251475,-0.2429 2.576982,-2.351174 5.167791,-4.685058 l 4.710561,-4.243422 4.194827,0 4.194823,0 0.850771,0.708994 c 1.127251,0.939395 3.201012,3.21227 3.871334,4.243036 0.616548,0.948077 1.564547,2.87394 2.260461,4.59213 l 0.480055,1.185238 -0.04013,5.29762 c -0.04401,5.809527 -0.02829,5.704374 -1.225416,8.199859 -0.961722,2.004772 -1.845827,3.346929 -3.171154,4.81412 -2.247904,2.488518 -3.243992,2.866108 -7.564802,2.867613 l -2.724693,9.16e-4 -1.144967,-0.897387 C 45.086848,58.467845 42.9619,56.009586 42.157759,54.340883 41.354415,52.673836 40.657171,50.340897 40.427314,48.550916 l -0.1545,-1.20311 2.483842,0 2.483841,0 0.405115,0.87119 c 1.470149,3.16153 2.899444,4.989821 4.284458,5.480499 1.261407,0.446886 2.732094,0.415168 3.488155,-0.07523 0.794527,-0.515345 1.901113,-1.742431 2.680741,-2.972657 l 0.637721,-1.006297 -0.0013,-3.120394 c -0.0025,-5.569041 -0.375994,-7.228178 -2.047537,-9.092674 -0.941981,-1.050719 -1.73106,-1.534245 -2.809411,-1.721529 -1.581285,-0.274634 -2.376211,0.222252 -7.007317,4.380066 -3.340215,2.998853 -4.640258,3.989391 -5.734094,4.368955 -0.446635,0.154985 -2.068268,0.468848 -3.603625,0.697473 -1.535359,0.228626 -2.862945,0.480976 -2.950195,0.56078 -0.08725,0.0798 -0.343166,1.779068 -0.568706,3.776144 -0.25552,2.262534 -0.574992,4.184043 -0.847651,5.09831 -0.744249,2.495584 -2.498809,4.921637 -5.349577,7.396936 l -1.091903,0.948151 -4.165807,-0.01386 -4.165807,-0.01386 -1.507294,-0.94903 z"
       id="path3032"
       inkscape:connector-curvature="0" />
    <path
       style="fill:#000000;fill-opacity:1"
       d="M 14.62904,61.824005 C 12.141283,60.242062 11.230149,59.489723 8.7714588,56.987301 5.4686477,53.625742 3.2061324,50.260629 1.6766356,46.43494 0.85681259,44.384339 1.0249186,43.905699 3.0243259,42.597713 4.6317476,41.54616 4.5825528,41.515092 8.149798,45.834689 c 1.7285821,2.093151 4.251042,4.967982 5.605467,6.388517 1.998678,2.096233 2.702451,2.711275 3.735843,3.264843 l 1.273252,0.682055 1.795396,-0.206126 c 2.244001,-0.257631 2.677733,-0.447686 3.682413,-1.613583 l 0.807185,-0.936712 0.126641,-2.564549 c 0.208563,-4.223497 -0.07649,-6.097688 -1.101013,-7.239189 -0.628195,-0.699921 -1.501897,-1.089908 -3.72614,-1.663208 -1.015168,-0.261661 -2.024442,-0.555098 -2.242829,-0.652088 -0.441771,-0.196189 -2.151837,-2.807464 -2.151837,-3.285856 0,-0.186549 1.016901,-1.03482 2.619317,-2.184962 3.003767,-2.155968 4.743264,-3.742744 5.416054,-4.94055 0.419316,-0.74653 0.469409,-1.021963 0.471734,-2.59378 0.0033,-2.1374 -0.328274,-3.044035 -1.56472,-4.280205 -1.147056,-1.146801 -2.413795,-1.789497 -3.517069,-1.784425 -1.404445,0.0065 -2.485199,0.641237 -7.116837,4.18009 -1.303597,0.996028 -2.3682387,1.680127 -2.6175214,1.681924 -0.6449776,0.0046 -3.0076505,-2.567065 -3.0076505,-3.273759 0,-1.617768 4.8210119,-6.889399 7.9931659,-8.740286 1.349462,-0.787382 2.345745,-0.967873 5.636889,-1.021193 l 2.337279,-0.03786 1.552759,1.066316 c 0.864644,0.593774 2.299329,1.846237 3.237429,2.82624 1.385302,1.447183 1.814355,2.036562 2.414461,3.3167 0.798207,1.702726 0.961883,2.660261 1.175287,6.875627 l 0.111419,2.200901 -0.74255,1.834085 c -0.573591,1.416762 -0.746354,2.081151 -0.759265,2.919913 -0.02007,1.303793 -0.318992,1.169461 4.082219,1.834502 l 3.044215,0.459994 3.371997,-3.071133 c 1.854599,-1.689123 4.173297,-3.790869 5.152666,-4.670551 l 1.780671,-1.599416 4.291909,0 4.291906,0 1.365955,1.272638 c 2.042831,1.903281 3.443056,3.768602 4.481556,5.97014 1.674975,3.550827 1.579974,2.980423 1.481998,8.898167 l -0.08652,5.226148 -0.556617,1.467269 c -0.967055,2.549192 -2.142752,4.41137 -4.065445,6.439233 -2.2924,2.417788 -2.453814,2.480011 -6.729833,2.594157 l -3.214101,0.0858 -0.735157,-0.507599 c -1.094654,-0.755832 -4.089617,-3.854403 -4.790739,-4.956486 -1.052227,-1.653984 -2.134791,-4.892428 -2.432738,-7.277434 l -0.108833,-0.871186 2.543334,0 2.543334,0 0.641321,1.329711 c 1.407543,2.918396 2.935555,4.692804 4.364425,5.068197 1.049068,0.275611 2.097507,0.258023 2.782879,-0.04669 0.73608,-0.327255 2.082228,-1.733846 2.981245,-3.115108 l 0.713826,-1.096734 -0.118737,-3.727582 c -0.06531,-2.050174 -0.197027,-4.161576 -0.292711,-4.692009 -0.243363,-1.349089 -0.931953,-2.731976 -1.85235,-3.720058 -0.997361,-1.070704 -1.991568,-1.545253 -3.248264,-1.550437 -1.374689,-0.0057 -1.790552,0.290688 -7.792122,5.552926 -1.438772,1.26153 -3.042441,2.511578 -3.563711,2.777886 -0.677817,0.346285 -1.831185,0.636713 -4.049406,1.019679 -2.906899,0.501862 -3.377998,0.667196 -3.394946,1.191471 -0.03675,1.136875 -1.10627,7.780991 -1.385611,8.607758 -0.745917,2.207678 -2.331414,4.404983 -4.801044,6.653659 l -1.459519,1.328941 -4.225614,0.0041 -4.225615,0.0041 -1.751131,-1.113529 z"
       id="path3034"
       inkscape:connector-curvature="0" />
    <path
       style="fill:#000000;fill-opacity:1"
       d="m 38.643871,20.73757 c -3.842132,-0.786495 -8.097356,-3.729098 -10.083325,-6.972888 -1.346503,-2.19932 -2.586532,-5.1892621 -2.586532,-6.2366125 0,-0.4364461 0.09826,-0.5413612 0.659201,-0.7038985 0.362559,-0.1050543 1.352521,-0.1914669 2.199916,-0.1920295 1.524015,-0.00101 1.544024,0.0049 1.84576,0.5447711 0.167773,0.3001866 0.68409,1.2319785 1.147371,2.0706477 1.632074,2.9545227 4.006744,5.4605487 6.225502,6.5698777 2.232271,1.116086 5.346269,1.116331 7.515606,5.88e-4 2.528073,-1.300246 4.570761,-3.760619 7.164935,-8.630015 l 0.3024,-0.5676153 2.3344,0.051213 2.334399,0.051213 -0.053,0.5502256 c -0.324513,3.369489 -3.646062,8.50826 -7.04861,10.904908 -2.421699,1.705767 -6.0773,2.775236 -9.362064,2.738932 -0.999981,-0.01105 -2.168168,-0.09174 -2.595969,-0.179318 l 0,0 z"
       id="path3036"
       inkscape:connector-curvature="0" />
    <path
       style="fill:#000000;fill-opacity:1"
       d="M 38.894333,20.818037 C 35.797211,20.145061 32.813265,18.519167 30.576455,16.285785 29.14421,14.855737 28.290258,13.544241 27.076394,10.910405 26.322905,9.2754857 26.103581,8.6027223 26.085337,7.8703961 26.05675,6.7227 26.15477,6.6760787 28.652556,6.6494009 l 1.711714,-0.018282 0.404637,0.687782 c 0.22255,0.3782802 0.836599,1.4268859 1.364552,2.3302345 1.140394,1.9512594 4.012689,5.0684564 5.367741,5.8254084 1.264521,0.706382 2.734098,1.060635 4.399923,1.060635 4.086966,0 6.921536,-2.35489 10.306623,-8.5624915 l 0.731576,-1.3415684 2.426037,0 c 1.334321,0 2.426038,0.069331 2.426038,0.1540699 0,0.08474 -0.155715,0.7893067 -0.346032,1.565707 -0.881681,3.59681 -3.926048,7.904571 -7.099509,10.045765 -2.308969,1.557903 -5.949102,2.555265 -9.19391,2.519047 -1.048321,-0.0117 -2.064248,-0.05564 -2.257613,-0.09767 z"
       id="path3038"
       inkscape:connector-curvature="0" />
    <path
       style="fill:#000000;fill-opacity:1"
       d="m 37.701494,20.555995 c -3.982729,-1.185079 -7.736835,-4.14357 -9.645763,-7.60152 -1.086048,-1.967333 -1.908949,-4.0267486 -2.030023,-5.0803988 -0.09349,-0.8136262 -0.0707,-0.8776799 0.375293,-1.0545983 0.261158,-0.103598 1.283428,-0.1883593 2.271708,-0.1883593 l 1.796875,0 0.67904,1.2380074 c 1.581258,2.88291 4.051905,5.882068 5.914659,7.179903 1.701029,1.185155 3.848766,1.643705 6.118754,1.306378 3.246909,-0.482499 5.780733,-2.790661 8.711939,-7.9360549 l 1.018711,-1.7882335 2.454807,0 2.454807,0 -0.124571,0.7692855 c -0.694854,4.2911299 -4.561205,9.6337839 -8.431986,11.6515929 -3.318637,1.729982 -8.5279,2.407478 -11.56425,1.503998 z"
       id="path3040"
       inkscape:connector-curvature="0" />
    <path
       style="fill:#000000;fill-opacity:1"
       d="M 38.542759,20.822886 C 32.88627,19.332252 28.780093,15.576284 26.557896,9.8601895 26.240014,9.0425104 25.978598,8.0619553 25.976972,7.681178 25.97306,6.7713525 26.334467,6.6311186 28.682967,6.6311186 l 1.807135,0 0.887229,1.5131205 c 1.151046,1.9630419 2.224095,3.3969399 3.781957,5.0537739 2.306591,2.453126 4.172729,3.262255 7.162884,3.105718 2.483384,-0.130008 4.151748,-0.964494 6.139479,-3.07086 0.909298,-0.963567 3.186989,-4.3229298 4.091918,-6.0351572 l 0.299451,-0.5665952 2.469189,0 c 2.80771,0 2.646222,-0.1238399 2.197022,1.6848458 -0.616064,2.4805536 -2.232819,5.2939036 -4.406299,7.6674996 -2.133346,2.329765 -4.099055,3.505401 -7.417987,4.43649 -1.023271,0.287067 -2.012532,0.39321 -4.075918,0.437326 -1.498581,0.03204 -2.882902,0.01657 -3.076268,-0.03439 l 0,0 z"
       id="path3042"
       inkscape:connector-curvature="0" />
    <path
       style="fill:#000000;fill-opacity:1"
       d="M 37.312253,20.496585 C 32.85065,19.007914 29.33603,15.846269 27.200732,11.400563 25.992093,8.8841707 25.663004,7.1845065 26.314032,6.8209802 c 0.187009,-0.1044236 1.213537,-0.1898616 2.281174,-0.1898616 1.927988,0 1.943183,0.00342 2.239994,0.5043736 2.935647,4.9547228 5.610514,7.8094198 8.146777,8.6944788 1.42473,0.497176 3.637762,0.535115 5.273848,0.0904 1.403114,-0.381382 3.187564,-1.605814 4.418428,-3.031779 0.875315,-1.01406 4.019332,-5.7831029 4.019332,-6.096776 0,-0.088385 1.147009,-0.1607016 2.548907,-0.1607016 l 2.548905,0 -0.0024,0.5043733 c -0.0035,0.7448471 -0.901206,3.3050423 -1.646471,4.6954853 -1.28965,2.406098 -3.812886,5.296891 -5.754561,6.59282 -2.569303,1.714828 -5.662318,2.523029 -9.560024,2.498024 -1.855671,-0.01191 -2.516527,-0.09185 -3.515733,-0.425238 z"
       id="path3044"
       inkscape:connector-curvature="0" />
    <path
       style="fill:#000000;fill-opacity:1"
       d="M 36.82379,20.315401 C 35.878359,19.975334 34.454487,19.29517 33.659632,18.80392 31.794596,17.651266 28.990315,14.76286 27.9716,12.945261 26.912181,11.055038 26.146937,9.1361301 26.025333,8.064847 25.875113,6.7414737 26.06929,6.6311186 28.548146,6.6311186 l 1.979576,0 1.532641,2.3384587 c 1.765508,2.6937577 4.413822,5.5751877 5.750491,6.2566717 2.527485,1.288604 5.523706,1.255061 8.073951,-0.09039 0.513643,-0.270985 1.50688,-1.101932 2.248931,-1.881467 1.223884,-1.285707 3.582965,-4.6101921 4.276947,-6.027199 l 0.29193,-0.5960776 2.544392,0 2.544392,0 0,0.5181012 c 0,1.3615558 -1.478211,4.7463834 -2.988457,6.8430044 -1.130194,1.569008 -3.535425,3.927911 -4.822683,4.729787 -2.341265,1.458456 -5.466349,2.215939 -9.131349,2.213332 -2.159565,-0.0016 -2.415409,-0.04094 -4.025118,-0.619942 l 0,0 z"
       id="path3046"
       inkscape:connector-curvature="0" />
    <path
       style="fill:#000000;fill-opacity:1"
       d="m 38.279078,20.831673 c -0.145022,-0.0547 -0.777855,-0.270401 -1.406291,-0.479332 -2.387618,-0.793796 -4.135497,-1.925516 -6.309338,-4.085186 -2.209608,-2.195205 -4.28152,-5.941817 -4.538675,-8.2072298 -0.150145,-1.322702 0.04132,-1.4288878 2.57569,-1.4284785 l 2.031895,3.28e-4 0.527325,0.8708625 c 1.579565,2.6086178 4.54126,6.1679668 6.009004,7.2215868 2.221294,1.594554 5.6135,1.818833 8.241072,0.544866 1.854608,-0.899198 4.381114,-3.740822 6.579356,-7.399964 l 0.743737,-1.2380074 2.529274,0 2.52927,0 0,0.6377429 c 0,0.6998068 -0.565016,2.3934466 -1.319087,3.9539675 -1.469334,3.040732 -4.587421,6.494917 -7.088456,7.852515 -2.318499,1.258515 -4.294033,1.708464 -7.852722,1.788541 -1.643604,0.03698 -3.107029,0.02249 -3.252054,-0.03221 z"
       id="path3048"
       inkscape:connector-curvature="0" />
    <path
       style="fill:#000000;fill-opacity:1"
       d="M 36.872787,20.41729 C 34.088614,19.309541 32.727442,18.421084 30.6586,16.361197 28.149336,13.862794 25.974014,9.845226 25.974014,7.7093103 c 0,-0.9592176 0.29596,-1.0781917 2.682108,-1.0781917 l 2.002074,0 0.865613,1.3217956 c 1.839583,2.8090608 4.565526,5.9765258 5.899683,6.8552608 2.457206,1.618421 6.376013,1.567241 8.810286,-0.115066 1.554461,-1.074275 4.572798,-4.7731039 5.954817,-7.2973445 l 0.417097,-0.7618206 2.592853,-0.00142 2.592852,-0.00142 0,0.6132172 c 0,1.1611736 -1.261146,4.2585966 -2.502884,6.1471786 -0.903965,1.374862 -3.62787,4.201493 -4.872005,5.055749 -2.521324,1.731202 -4.690926,2.309938 -9.061162,2.417038 -3.14056,0.07696 -3.173994,0.07364 -4.482559,-0.447013 z"
       id="path3050"
       inkscape:connector-curvature="0" />
    <path
       style="fill:#000000;fill-opacity:1"
       d="m 39.548926,8.4245586 0.04856,-2.8021868 2.373119,0 2.373119,0 0,2.7511275 0,2.7511277 -2.421671,0.05107 -2.421672,0.05107 0.04856,-2.8021881 z"
       id="path3052"
       inkscape:connector-curvature="0" />
    <path
       style="fill:#000000;fill-opacity:1"
       d="m 39.509586,8.3734993 0,-2.8428317 2.461013,0 2.461013,0 0,2.8428317 0,2.8428327 -2.461013,0 -2.461013,0 0,-2.8428327 z"
       id="path3054"
       inkscape:connector-curvature="0" />
    <path
       style="fill:#000000;fill-opacity:1"
       d="m 39.509586,8.3734993 0,-2.8428317 2.461013,0 2.461013,0 0,2.8428317 0,2.8428327 -2.461013,0 -2.461013,0 0,-2.8428327 z"
       id="path3056"
       inkscape:connector-curvature="0" />
    <path
       style="fill:#000000;fill-opacity:1"
       d="m 39.509586,8.3734993 0,-2.8428317 2.461013,0 2.461013,0 0,2.8428317 0,2.8428327 -2.461013,0 -2.461013,0 0,-2.8428327 z"
       id="path3058"
       inkscape:connector-curvature="0" />
    <path
       style="fill:#000000;fill-opacity:1"
       d="m 39.509586,8.3734993 0,-2.8428317 2.461013,0 2.461013,0 0,2.8428317 0,2.8428327 -2.461013,0 -2.461013,0 0,-2.8428327 z"
       id="path3060"
       inkscape:connector-curvature="0" />
    <path
       style="fill:#000000;fill-opacity:1"
       d="m 39.509586,8.3734993 0,-2.8428317 2.461013,0 2.461013,0 0,2.8428317 0,2.8428327 -2.461013,0 -2.461013,0 0,-2.8428327 z"
       id="path3062"
       inkscape:connector-curvature="0" />
    <path
       style="fill:#000000;fill-opacity:1"
       d="m 39.509586,8.3734993 0,-2.8428317 2.461013,0 2.461013,0 0,2.8428317 0,2.8428327 -2.461013,0 -2.461013,0 0,-2.8428327 z"
       id="path3064"
       inkscape:connector-curvature="0" />
    <path
       style="fill:#000000;fill-opacity:1"
       d="m 39.509586,8.3734993 0,-2.8428317 2.461013,0 2.461013,0 0,2.8428317 0,2.8428327 -2.461013,0 -2.461013,0 0,-2.8428327 z"
       id="path3066"
       inkscape:connector-curvature="0" />
    <path
       style="fill:#000000;fill-opacity:1"
       d="m 39.509586,8.3734993 0,-2.8428317 2.461013,0 2.461013,0 0,2.8428317 0,2.8428327 -2.461013,0 -2.461013,0 0,-2.8428327 z"
       id="path3068"
       inkscape:connector-curvature="0" />
    <path
       style="fill:#ffffff;fill-opacity:1"
       d="m 19.328808,14.168063 c -1.916972,0.0533 -3.95038,0.09738 -5.55016,1.367661 -2.863655,1.937645 -5.3995856,4.491663 -7.3426918,7.424486 -0.5353487,0.956199 -1.3316725,2.285383 -0.2227547,3.160115 0.9405379,1.10509 1.9064233,2.432545 3.3155008,2.869438 1.3626897,-0.176704 2.4243957,-1.399457 3.6036257,-2.080539 1.928904,-1.241752 3.672973,-3.050981 5.905333,-3.628051 1.901205,-0.097 3.787507,1.447072 4.323254,3.312817 0.313825,1.589409 0.411585,3.623746 -0.966827,4.751428 -2.106706,2.326827 -4.895784,3.783457 -7.075413,6.01236 -0.635504,1.175599 0.575003,2.350792 1.067095,3.354563 1.109392,1.926813 3.550525,1.893726 5.334077,2.694493 1.276989,0.280548 2.474783,1.34944 2.399148,2.806136 0.07468,2.272419 0.02296,4.547146 0.03845,6.820505 -0.882568,1.079153 -2.023789,1.943371 -3.426349,1.943906 -1.010218,0.236407 -2.060651,0.300894 -2.929438,-0.402128 -2.624092,-1.991336 -4.721795,-4.666462 -6.987793,-7.077515 -1.8845051,-1.952301 -3.4053344,-4.347813 -5.4710829,-6.116436 -1.6471975,-0.852906 -3.2714112,0.68299 -4.45509289,1.725187 -1.24101711,1.369301 -0.17995117,3.353052 0.41199999,4.780083 3.2003495,6.727019 8.4231415,12.4423 14.8129778,15.914025 2.972472,0.04287 5.993768,0.09593 8.957455,-0.01906 1.397284,-0.80583 2.464137,-2.150772 3.625342,-3.303667 2.027231,-2.141703 3.470814,-4.884373 3.817342,-7.891451 0.385271,-1.961856 0.482348,-4.061559 0.944852,-5.949315 2.286347,-0.704676 4.81908,-0.655066 6.98752,-1.759574 3.538437,-2.304531 6.38717,-5.65972 9.948426,-7.898031 1.632914,-0.720621 3.428181,0.633946 4.218878,2.080541 1.420015,2.470371 0.901157,5.500919 1.193476,8.239696 0.0782,0.999132 0.247056,2.059489 -0.559836,2.799212 -0.987315,1.315299 -2.148871,3.217416 -4.028519,2.842824 -2.227905,-0.377402 -3.366834,-2.78997 -4.422132,-4.625333 -0.445056,-0.932976 -0.961085,-2.230093 -2.202826,-1.874207 -1.644939,0.120396 -3.371516,-0.251861 -4.960481,0.206334 -0.659323,1.115285 0.02315,2.505361 0.175788,3.708293 0.715885,3.064979 2.034923,6.048871 4.325613,8.189323 1.239468,1.207439 2.443813,2.618373 4.013267,3.31956 2.73285,-0.181612 5.654305,0.373008 8.239999,-0.785218 2.825143,-1.84654 4.895458,-4.792889 6.333813,-7.886564 1.44989,-2.645366 0.948021,-5.792544 1.141417,-8.700231 -0.02148,-2.35214 0.348985,-4.867939 -0.856651,-6.999359 -1.336655,-3.548828 -3.756443,-6.48482 -6.494132,-8.955789 -1.101473,-0.891081 -2.661607,-0.238007 -3.958794,-0.437199 -2.024927,0.112201 -4.125421,-0.231623 -6.099948,0.184735 -3.367162,2.968774 -6.687649,6.023531 -10.017491,9.048737 -1.967181,-0.313748 -3.949685,-0.544016 -5.883359,-0.968627 -0.004,-2.35496 1.812521,-4.329452 1.36497,-6.740056 -0.195552,-3.342681 -0.199074,-7.070494 -2.480116,-9.715127 -1.89438,-2.327472 -4.139932,-4.439497 -6.732683,-5.842293 -1.105244,-0.101893 -2.256938,0.09155 -3.37505,0.09931 z"
       id="path3084"
       inkscape:connector-curvature="0" />
    <path
       style="fill:#ffffff;fill-opacity:1"
       d="m 28.271953,5.7312706 c -1.152719,0.00315 -2.982741,-0.075243 -3.125705,1.5417779 -0.102789,2.6709402 1.390358,5.0817135 2.757652,7.2217105 2.47009,3.560094 6.154983,6.323483 10.3,7.238906 4.724287,0.335002 10.034083,0.05687 13.749811,-3.387326 3.17912,-2.693425 5.797516,-6.342938 6.679893,-10.5574537 C 58.899022,6.7986569 58.514163,5.4064918 57.282243,5.7255392 55.534436,5.8439677 53.706161,5.4768026 52.014138,5.9318736 50.176911,9.038712 48.04567,12.086271 45.147473,14.202452 42.812466,15.326893 39.775251,15.364223 37.649073,13.772587 35.134188,11.55915 33.205267,8.7550988 31.305293,6.0126272 30.480758,5.4088413 29.242052,5.8559669 28.271953,5.7312706 z"
       id="path3086"
       inkscape:connector-curvature="0" />
    <path
       style="fill:#ffffff;fill-opacity:1"
       d="m 38.79718,4.8314225 c -0.663344,1.2097637 -0.15565,2.7443652 -0.313121,4.092303 0.160279,1.0506161 -0.518048,2.8959615 0.867947,3.1981855 1.874689,-0.126252 3.834053,0.258491 5.652639,-0.206335 0.663345,-1.209764 0.155651,-2.7443639 0.31312,-4.0923018 C 45.157487,6.7726579 45.835814,4.9273128 44.44982,4.625088 42.585693,4.7513652 40.600177,4.366601 38.79718,4.8314225 z"
       id="path3088"
       inkscape:connector-curvature="0" />
    <path
       style="fill:#000000;fill-opacity:1"
       d="M 17.466568,63.688867 C 15.858908,63.583547 15.744878,63.546545 14.410581,62.69723 9.4805778,59.559159 5.255288,55.015596 2.3613355,49.740364 1.0966148,47.434972 0.41526332,45.636092 0.41526332,44.602412 c 0,-0.894766 0.57483507,-1.642744 2.00223518,-2.60532 0.8356002,-0.56349 1.2057984,-0.701762 1.8788372,-0.701762 1.0105348,0 1.3360914,0.255535 3.3648041,2.641108 3.4145312,4.015164 7.2043502,8.136663 8.7105412,9.472878 1.979758,1.756343 2.519306,1.966562 4.272166,1.664532 1.409876,-0.242931 1.992016,-0.511133 2.884988,-1.329168 l 0.617626,-0.565795 0,-3.841689 c 0,-5.179129 0.0031,-5.173959 -3.646542,-6.391268 -1.203485,-0.401429 -2.500137,-0.912816 -2.881442,-1.136414 -0.908393,-0.532682 -2.437136,-2.914512 -2.437136,-3.797134 0,-0.482589 0.660832,-1.120886 3.515734,-3.395839 3.263321,-2.600406 4.482102,-3.853912 4.750081,-4.885432 0.262384,-1.009976 0.117074,-2.878869 -0.294134,-3.782998 -0.667499,-1.467641 -2.297474,-2.635184 -3.721968,-2.66603 -1.087188,-0.02355 -1.959546,0.453859 -5.785635,3.166211 -1.729057,1.225745 -3.339456,2.234911 -3.6694914,2.299513 -0.4524459,0.08856 -0.7706616,0.0035 -1.3791522,-0.368535 -0.8931633,-0.546124 -2.90994,-2.883818 -2.9040519,-3.366156 0.013042,-1.06836 2.2448006,-4.269322 4.4502355,-6.382875 1.7357,-1.663386 4.011768,-3.355614 5.086328,-3.781619 0.937216,-0.371554 3.749828,-0.689508 6.145894,-0.694767 1.222563,-0.0027 1.453054,0.05625 2.285225,0.584249 2.560361,1.624522 5.898455,5.055259 6.82085,7.010144 0.729349,1.545758 0.988895,2.866673 1.252334,6.373566 l 0.215954,2.874729 -0.75404,2.377864 c -0.414719,1.307826 -0.726188,2.53148 -0.692153,2.719233 0.05174,0.285445 0.421627,0.404036 2.257935,0.723934 1.20783,0.210412 2.532654,0.429583 2.944055,0.48705 l 0.748003,0.104468 5.040995,-4.551751 5.040995,-4.551753 1.330361,-0.103019 c 0.731701,-0.05666 2.8352,-0.08284 4.674445,-0.05819 3.138135,0.04206 3.377903,0.06994 3.893256,0.452815 0.982673,0.730063 3.739849,3.91467 4.720238,5.451987 1.176831,1.845358 2.329959,4.510569 2.560225,5.917431 0.230568,1.408696 0.0215,9.3093 -0.289138,10.926625 -0.630089,3.2805 -4.520161,8.751722 -7.197197,10.122558 -1.026248,0.525513 -3.193544,0.813256 -6.162065,0.818109 -1.876057,0.0029 -1.973216,-0.01662 -2.812585,-0.569905 -1.276012,-0.841114 -4.227154,-3.917207 -5.111866,-5.328301 -0.931987,-1.486502 -1.715111,-3.479021 -2.27912,-5.798818 -0.494209,-2.032694 -0.535856,-3.012374 -0.142536,-3.352953 0.198038,-0.171484 1.069088,-0.25772 2.989868,-0.29601 2.413702,-0.04813 2.744909,-0.01802 3.025532,0.27475 0.173316,0.180831 0.82525,1.222573 1.448746,2.314984 2.006475,3.515496 3.985663,4.720887 5.816132,3.542216 0.745264,-0.479888 2.512846,-2.590007 2.777155,-3.315334 0.123922,-0.340069 0.127937,-1.62693 0.0126,-4.038215 -0.194506,-4.066379 -0.494661,-5.411894 -1.510867,-6.772793 -0.699493,-0.936751 -2.099098,-1.783408 -2.948148,-1.783408 -0.906451,0 -2.31597,0.99807 -6.378758,4.516755 -2.721956,2.357421 -4.22087,3.466242 -5.248038,3.882232 -0.483413,0.195778 -2.043587,0.582744 -3.467057,0.859926 -1.423468,0.277182 -2.668164,0.604591 -2.765991,0.727576 -0.09783,0.122987 -0.414788,1.784794 -0.704356,3.69291 -0.289571,1.908113 -0.61563,3.799432 -0.724578,4.202931 -0.255379,0.945821 -1.041482,2.601345 -1.762245,3.711275 -0.695989,1.071776 -3.915242,4.535368 -4.638704,4.990773 -0.436413,0.274716 -1.042728,0.346781 -3.515734,0.417871 -1.643603,0.04725 -3.739861,0.03669 -4.658345,-0.0235 l 0,0 z"
       id="path3055"
       inkscape:connector-curvature="0" />
    <path
       style="fill:#000000;fill-opacity:1"
       d="M 36.539419,21.155394 C 33.836853,20.159254 31.706414,18.720622 29.717827,16.548942 25.93521,12.418057 24.014245,6.9447788 26.051246,6.102005 c 0.546883,-0.2262623 4.088842,-0.4365295 4.692137,-0.278547 0.258082,0.067583 0.935489,0.8390156 1.811233,2.0626351 4.163615,5.8175499 6.23609,7.3734779 9.499617,7.1319089 0.737476,-0.0546 1.736385,-0.240645 2.219799,-0.413458 1.708617,-0.610804 4.062087,-2.997664 6.415143,-6.5061567 0.575059,-0.8574353 1.152349,-1.7172745 1.282867,-1.9107545 0.214447,-0.3178955 0.511817,-0.357075 3.087071,-0.4067342 2.639053,-0.050888 2.875335,-0.028269 3.195646,0.3059293 0.650953,0.6791771 0.373388,2.2746959 -0.876399,5.0377991 -1.427832,3.156738 -3.906246,6.140405 -6.724195,8.095001 -1.308586,0.907666 -2.32593,1.370704 -4.270694,1.943781 -0.990669,0.291926 -1.932881,0.376998 -4.834133,0.436465 -3.590106,0.07359 -3.6089,0.07193 -5.009919,-0.44448 l 0,0 z"
       id="path3057"
       inkscape:connector-curvature="0" />
    <path
       style="fill:#000000;fill-opacity:1"
       d="m 39.262714,11.989517 c -0.619915,-0.193215 -0.701749,-0.614887 -0.701749,-3.6160177 0,-2.2636084 0.05846,-3.0395341 0.249517,-3.3121503 0.229221,-0.3270596 0.480653,-0.3559575 3.090974,-0.3552542 2.60727,7.024e-4 2.861976,0.030044 3.09043,0.3560196 0.35663,0.5088699 0.359006,6.1105116 0.0029,6.6187666 -0.222237,0.317105 -0.500064,0.353153 -2.857932,0.370817 -1.436471,0.01074 -2.72979,-0.01722 -2.874046,-0.06219 l 0,0 z"
       id="path3059"
       inkscape:connector-curvature="0" />
    <path
       style="fill:#aa0044;fill-opacity:1;stroke:#d40055;stroke-width:0.125"
       d="M 16.302776,63.522359 C 14.818797,63.210066 11.523832,60.781781 8.6023997,57.847425 5.5590466,54.790609 3.5916205,52.095397 1.8429217,48.5875 0.48968939,45.87291 0.2126687,44.470067 0.84204334,43.519019 1.2124614,42.959279 2.3565655,42.015805 3.1111375,41.647834 c 0.6026715,-0.293896 1.6638839,-0.328361 2.154242,-0.06996 0.4337755,0.228581 1.2131929,1.046799 3.2836652,3.44713 3.4571643,4.007945 6.4440513,7.210301 7.9350763,8.507502 1.817647,1.581364 2.388853,1.814762 3.920887,1.602092 1.306289,-0.181334 2.158716,-0.535761 3.027554,-1.258817 l 0.751507,-0.62541 -0.04057,-3.893933 c -0.03963,-3.803727 -0.04744,-3.90788 -0.336968,-4.495932 -0.394849,-0.80197 -0.858176,-1.085126 -3.090379,-1.888645 -2.756017,-0.992075 -3.172992,-1.200964 -3.785983,-1.896651 -0.78724,-0.893444 -1.536052,-2.215667 -1.604837,-2.83376 -0.05524,-0.496439 -0.02164,-0.566621 0.546865,-1.141966 0.33315,-0.33716 1.618228,-1.443156 2.855728,-2.457769 2.498366,-2.048383 3.86916,-3.329915 4.367749,-4.083334 0.677406,-1.023628 0.683906,-3.27799 0.01367,-4.741972 -0.616441,-1.346484 -2.330805,-2.541104 -3.646955,-2.541306 -1.200642,-1.85e-4 -1.665847,0.248615 -5.796966,3.100319 -1.340625,0.925431 -2.78613,1.847852 -3.212233,2.049824 L 9.6784566,28.792465 9.0781894,28.52824 C 8.0441615,28.073084 5.790422,25.629834 5.790422,24.964014 c 0,-1.044849 2.2424917,-4.210097 4.524424,-6.386165 1.41723,-1.351481 3.458372,-2.914366 4.479173,-3.429665 0.925034,-0.466956 2.33571,-0.713565 4.933903,-0.862525 2.28553,-0.131035 2.925805,-0.06278 3.707326,0.395224 2.265924,1.32792 5.928431,5.00336 6.89331,6.91765 0.749353,1.486692 1.061265,2.980726 1.328623,6.363967 0.07606,0.9625 0.166941,2.015095 0.201955,2.3391 0.051,0.471957 -0.06114,0.993934 -0.563984,2.625 -0.345205,1.119745 -0.677679,2.306171 -0.73883,2.636504 -0.1003,0.541803 -0.08511,0.617235 0.155207,0.770484 0.358697,0.228742 4.658028,1.065043 5.480254,1.066013 0.27008,3.75e-4 1.34381,-0.906656 5.289905,-4.468351 2.723074,-2.457813 5.073711,-4.518729 5.223639,-4.579815 0.349922,-0.14257 8.07125,-0.17256 8.897595,-0.03456 0.575512,0.09611 0.719027,0.200068 1.8125,1.312883 3.69606,3.761437 5.941835,7.729223 6.272856,11.082741 0.226001,2.289591 -0.0924,9.391324 -0.484767,10.8125 -0.649804,2.353609 -3.152347,6.201504 -5.326864,8.190559 -1.67788,1.534772 -2.929709,1.901336 -6.905996,2.022227 -1.728557,0.05255 -2.510787,0.03001 -2.850608,-0.08214 -1.314775,-0.433915 -5.133634,-4.303378 -6.306084,-6.389646 -1.004027,-1.786575 -2.113397,-5.353304 -2.23816,-7.195894 -0.09594,-1.416845 -0.124987,-1.401875 2.918329,-1.503669 1.650704,-0.05521 2.498025,-0.03551 2.803155,0.0652 0.379718,0.125319 0.575459,0.370649 1.486101,1.862595 1.638212,2.683958 2.506989,3.70681 3.638927,4.284283 0.67957,0.34669 1.67174,0.351746 2.337866,0.01191 0.573167,-0.292408 1.927097,-1.710922 2.616737,-2.741557 l 0.476008,-0.71137 -0.0139,-2.375 c -0.02352,-4.018359 -0.393213,-6.638748 -1.108911,-7.859994 -0.664475,-1.133841 -2.107627,-2.231477 -3.153871,-2.398777 -0.93985,-0.150289 -2.017255,0.563747 -6.221864,4.123457 -2.653729,2.246703 -4.295684,3.512927 -5.166714,3.984404 -0.551051,0.298276 -1.724346,0.615234 -5.18587,1.400922 -1.338355,0.303777 -1.487765,0.365645 -1.600758,0.662838 -0.06854,0.180284 -0.425409,2.049889 -0.793034,4.154679 -0.716515,4.102308 -0.918661,4.776663 -1.95837,6.533076 -1.021803,1.726165 -4.388045,5.397549 -5.313553,5.795212 -0.410095,0.176207 -1.087993,0.213057 -4.483152,0.243707 -2.2,0.01986 -4.247566,-0.01599 -4.550146,-0.07966 l 0,0 z"
       id="path3705"
       inkscape:connector-curvature="0" />
    <path
       style="fill:#aa0044;fill-opacity:1;stroke:#d40055;stroke-width:0.125"
       d="M 37.491625,21.423251 C 36.860007,21.275007 34.602569,20.290856 33.7604,19.796587 31.922493,18.717922 29.382536,16.308941 28.05426,14.384691 25.445439,10.605339 24.502768,6.8160311 26.017942,6.1991916 c 0.42463,-0.1728701 2.417267,-0.3816983 3.669139,-0.3845255 1.227509,-0.00277 1.247438,0.013853 3.33822,2.7848444 2.900476,3.8441085 4.441353,5.3427205 6.282142,6.1098275 0.93144,0.388156 3.52618,0.397419 4.683501,0.01672 2.009012,-0.660863 4.013345,-2.692177 7.223517,-7.320751 0.465258,-0.6708317 0.965965,-1.2839377 1.112681,-1.3624578 0.173616,-0.092917 1.194149,-0.1471431 2.92284,-0.155306 2.6061,-0.012306 2.661465,-0.00718 2.942012,0.2725002 0.244543,0.2437854 0.284109,0.4066178 0.27336,1.125 -0.01625,1.0863281 -0.442978,2.366053 -1.489783,4.4677686 -1.011402,2.030636 -2.354182,3.840269 -4.079013,5.497189 -2.912566,2.797892 -5.403825,3.952684 -9.043636,4.19206 -2.181518,0.14347 -5.714385,0.133024 -6.361297,-0.01881 l 0,0 z"
       id="path3707"
       inkscape:connector-curvature="0" />
    <path
       style="fill:#aa0044;fill-opacity:1;stroke:#d40055;stroke-width:0.125"
       d="m 40.316725,11.9375 c -1.383896,-0.06725 -1.459011,-0.105523 -1.594483,-0.8125 -0.03952,-0.20625 -0.05441,-1.6311859 -0.03309,-3.1665243 0.03603,-2.5943495 0.05591,-2.8040423 0.28141,-2.96875 0.191863,-0.1401367 0.806609,-0.1768251 2.9375,-0.1753116 1.482172,0.00105 2.769239,0.049074 2.860149,0.106714 0.29338,0.1860139 0.391212,1.0305716 0.392852,3.3913719 0.0019,2.711301 -0.05864,3.206381 -0.41967,3.432692 -0.306679,0.192244 -2.481122,0.28675 -4.424669,0.192308 z"
       id="path3709"
       inkscape:connector-curvature="0" />
  </g>
</svg>
