<?xml version="1.0" encoding="UTF-8" standalone="no"?>
<!-- Created with Inkscape (http://www.inkscape.org/) -->

<svg
   xmlns:dc="http://purl.org/dc/elements/1.1/"
   xmlns:cc="http://creativecommons.org/ns#"
   xmlns:rdf="http://www.w3.org/1999/02/22-rdf-syntax-ns#"
   xmlns:svg="http://www.w3.org/2000/svg"
   xmlns="http://www.w3.org/2000/svg"
   xmlns:sodipodi="http://sodipodi.sourceforge.net/DTD/sodipodi-0.dtd"
   xmlns:inkscape="http://www.inkscape.org/namespaces/inkscape"
   width="100"
   height="100"
   id="svg2"
   version="1.1"
   inkscape:version="0.48.4 r9939"
   sodipodi:docname="main.svg">
  <defs
     id="defs4" />
  <sodipodi:namedview
     id="base"
     pagecolor="#ffffff"
     bordercolor="#666666"
     borderopacity="1.0"
     inkscape:pageopacity="0.0"
     inkscape:pageshadow="2"
     inkscape:zoom="1"
     inkscape:cx="-24.142857"
     inkscape:cy="46.571429"
     inkscape:document-units="px"
     inkscape:current-layer="layer1"
     showgrid="false"
     inkscape:window-width="1024"
     inkscape:window-height="718"
     inkscape:window-x="0"
     inkscape:window-y="27"
     inkscape:window-maximized="1" />
  <metadata
     id="metadata7">
    <rdf:RDF>
      <cc:Work
         rdf:about="">
        <dc:format>image/svg+xml</dc:format>
        <dc:type
           rdf:resource="http://purl.org/dc/dcmitype/StillImage" />
        <dc:title></dc:title>
      </cc:Work>
    </rdf:RDF>
  </metadata>
  <g
     inkscape:label="Layer 1"
     inkscape:groupmode="layer"
     id="layer1"
     transform="translate(0,-952.36218)">
    <g
       style="font-size:40px;font-style:normal;font-weight:normal;line-height:125%;letter-spacing:0px;word-spacing:0px;fill:#000000;fill-opacity:1;stroke:none;font-family:Sans"
       id="text2985">
      <path
         d="m 25.527344,1014.7547 c -0.716172,0.3125 -1.367213,0.6055 -1.953125,0.8789 -0.572941,0.2734 -1.328148,0.5599 -2.265625,0.8594 -0.794292,0.2474 -1.660177,0.4557 -2.597657,0.625 -0.924497,0.1823 -1.946632,0.2734 -3.066406,0.2734 -2.109389,0 -4.02996,-0.293 -5.7617185,-0.8789 -1.718759,-0.5989 -3.2161533,-1.5299 -4.4921875,-2.793 -1.250005,-1.2369 -2.2265665,-2.8059 -2.9296875,-4.707 -0.7031276,-1.914 -1.0546897,-4.1341 -1.0546875,-6.6601 -2.2e-6,-2.39586 0.3385391,-4.53779 1.015625,-6.42583 0.6770794,-1.88799 1.6536409,-3.48304 2.9296875,-4.78515 1.2369717,-1.263 2.7278557,-2.22654 4.4726563,-2.89063 1.7578002,-0.66403 3.7044122,-0.99606 5.8398442,-0.99609 1.562481,3e-5 3.118469,0.18883 4.667968,0.56641 1.562478,0.37763 3.294247,1.04169 5.195313,1.99218 l 0,4.58985 -0.292969,0 c -1.601587,-1.34112 -3.190127,-2.31769 -4.765625,-2.92969 -1.575541,-0.61195 -3.261737,-0.91794 -5.058594,-0.91797 -1.471369,3e-5 -2.799492,0.24091 -3.984375,0.72266 -1.171886,0.46877 -2.2200619,1.20445 -3.144531,2.20703 -0.8984457,0.97658 -1.60157,2.21356 -2.109375,3.71094 -0.4947982,1.48439 -0.7421938,3.20309 -0.7421875,5.15629 -6.3e-6,2.0442 0.273431,3.802 0.8203125,5.2734 0.5598882,1.4714 1.2760333,2.6693 2.1484375,3.5937 0.9114482,0.9636 1.9726455,1.6797 3.1835935,2.1485 1.223945,0.4557 2.513006,0.6836 3.867188,0.6836 1.861961,0 3.606751,-0.319 5.234375,-0.9571 1.627581,-0.638 3.151017,-1.595 4.570312,-2.8711 l 0.273438,0 0,4.5313"
         style=""
         id="path3018" />
      <path
         d="m 49.335937,1005.9656 c -2.2e-5,3.5547 -0.911479,6.3607 -2.734375,8.418 -1.822934,2.0573 -4.264338,3.0859 -7.324218,3.0859 -3.085947,0 -5.540371,-1.0286 -7.363282,-3.0859 -1.809898,-2.0573 -2.714845,-4.8633 -2.714843,-8.418 -2e-6,-3.5546 0.904945,-6.36062 2.714843,-8.41793 1.822911,-2.07029 4.277335,-3.10545 7.363282,-3.10547 3.05988,2e-5 5.501284,1.03518 7.324218,3.10547 1.822896,2.05731 2.734353,4.86333 2.734375,8.41793 m -3.789062,0 c -1.8e-5,-2.8255 -0.553403,-4.9218 -1.660156,-6.28903 -1.106787,-1.38019 -2.643244,-2.07029 -4.609375,-2.07031 -1.992198,2e-5 -3.541676,0.69012 -4.648438,2.07031 -1.093756,1.36723 -1.640631,3.46353 -1.640625,6.28903 -6e-6,2.7344 0.553379,4.8112 1.660156,6.2305 1.106763,1.4063 2.64973,2.1094 4.628907,2.1094 1.953111,0 3.483057,-0.6966 4.589843,-2.0899 1.119774,-1.4062 1.67967,-3.4895 1.679688,-6.25"
         style=""
         id="path3020" />
      <path
         d="m 73.28125,1016.8641 -3.671875,0 0,-12.4219 c -1.8e-5,-1.0026 -0.05861,-1.9401 -0.175781,-2.8125 -0.117206,-0.8854 -0.332049,-1.5755 -0.644532,-2.07031 -0.325537,-0.54686 -0.794287,-0.95051 -1.40625,-1.21094 -0.611994,-0.27342 -1.406264,-0.41014 -2.382812,-0.41016 -1.002617,2e-5 -2.050793,0.24742 -3.144531,0.74219 -1.09376,0.49481 -2.141936,1.12632 -3.144532,1.89452 l 0,16.2891 -3.671875,0 0,-21.81643 3.671875,0 0,2.42187 c 1.145825,-0.9505 2.33072,-1.69268 3.554688,-2.22656 1.223946,-0.53383 2.480455,-0.80076 3.769531,-0.80078 2.356754,2e-5 4.153627,0.70966 5.390625,2.12891 1.236958,1.41929 1.855447,3.46359 1.855469,6.13279 l 0,14.1602"
         style=""
         id="path3022" />
      <path
         d="m 98.59375,1016.8641 -3.671875,0 0,-12.4219 c -1.8e-5,-1.0026 -0.05861,-1.9401 -0.175781,-2.8125 -0.117206,-0.8854 -0.332049,-1.5755 -0.644532,-2.07031 -0.325537,-0.54686 -0.794287,-0.95051 -1.40625,-1.21094 -0.611994,-0.27342 -1.406264,-0.41014 -2.382812,-0.41016 -1.002617,2e-5 -2.050793,0.24742 -3.144531,0.74219 -1.09376,0.49481 -2.141936,1.12632 -3.144532,1.89452 l 0,16.2891 -3.671875,0 0,-21.81643 3.671875,0 0,2.42187 c 1.145825,-0.9505 2.33072,-1.69268 3.554688,-2.22656 1.223946,-0.53383 2.480455,-0.80076 3.769531,-0.80078 2.356754,2e-5 4.153627,0.70966 5.390625,2.12891 1.236958,1.41929 1.855447,3.46359 1.855469,6.13279 l 0,14.1602"
         style=""
         id="path3024" />
    </g>
  </g>
</svg>
