<?xml version="1.0" encoding="UTF-8" standalone="no"?>
<!-- Created with Inkscape (http://www.inkscape.org/) -->

<svg
   xmlns:dc="http://purl.org/dc/elements/1.1/"
   xmlns:cc="http://creativecommons.org/ns#"
   xmlns:rdf="http://www.w3.org/1999/02/22-rdf-syntax-ns#"
   xmlns:svg="http://www.w3.org/2000/svg"
   xmlns="http://www.w3.org/2000/svg"
   xmlns:sodipodi="http://sodipodi.sourceforge.net/DTD/sodipodi-0.dtd"
   xmlns:inkscape="http://www.inkscape.org/namespaces/inkscape"
   width="100"
   height="100"
   id="svg2"
   version="1.1"
   inkscape:version="0.48.4 r9939"
   sodipodi:docname="New document 1">
  <defs
     id="defs4" />
  <sodipodi:namedview
     id="base"
     pagecolor="#ffffff"
     bordercolor="#666666"
     borderopacity="1.0"
     inkscape:pageopacity="0.0"
     inkscape:pageshadow="2"
     inkscape:zoom="1"
     inkscape:cx="102.85714"
     inkscape:cy="46.571429"
     inkscape:document-units="px"
     inkscape:current-layer="layer1"
     showgrid="false"
     inkscape:window-width="1024"
     inkscape:window-height="718"
     inkscape:window-x="0"
     inkscape:window-y="27"
     inkscape:window-maximized="1" />
  <metadata
     id="metadata7">
    <rdf:RDF>
      <cc:Work
         rdf:about="">
        <dc:format>image/svg+xml</dc:format>
        <dc:type
           rdf:resource="http://purl.org/dc/dcmitype/StillImage" />
        <dc:title></dc:title>
      </cc:Work>
    </rdf:RDF>
  </metadata>
  <g
     inkscape:label="Layer 1"
     inkscape:groupmode="layer"
     id="layer1"
     transform="translate(0,-952.36218)">
    <g
       style="font-size:40px;font-style:normal;font-weight:normal;line-height:125%;letter-spacing:0px;word-spacing:0px;fill:#000000;fill-opacity:1;stroke:none;font-family:Sans"
       id="text2985">
      <path
         d="m 32.587891,1016.6981 -3.867188,0 0,-25.05857 -8.085937,17.05077 -2.304688,0 -8.027344,-17.05077 0,25.05857 -3.6132809,0 0,-29.08201 5.2734379,0 7.753906,16.19141 7.5,-16.19141 5.371094,0 0,29.08201"
         style=""
         id="path2990" />
      <path
         d="m 57.099609,1016.6981 -3.652343,0 0,-2.3242 c -0.325538,0.2214 -0.768246,0.5339 -1.328125,0.9375 -0.54689,0.3906 -1.080744,0.7031 -1.601563,0.9375 -0.611992,0.2995 -1.315117,0.5469 -2.109375,0.7422 -0.794282,0.2083 -1.72527,0.3125 -2.792969,0.3125 -1.966153,0 -3.632818,-0.6511 -5,-1.9531 -1.36719,-1.3021 -2.050783,-2.9623 -2.050781,-4.9805 -2e-6,-1.6536 0.35156,-2.9883 1.054688,-4.0039 0.716142,-1.0286 1.731766,-1.8359 3.046875,-2.4219 1.328117,-0.5859 2.923168,-0.983 4.785156,-1.1914 1.861966,-0.2083 3.860662,-0.3646 5.996094,-0.4687 l 0,-0.5664 c -1.7e-5,-0.8334 -0.149757,-1.5235 -0.449219,-2.07036 -0.286475,-0.54686 -0.703141,-0.97655 -1.25,-1.28906 -0.520848,-0.29946 -1.145848,-0.50129 -1.875,-0.60547 -0.729179,-0.10415 -1.490897,-0.15623 -2.285156,-0.15625 -0.963552,2e-5 -2.03777,0.13022 -3.222657,0.39062 -1.184902,0.24742 -2.408859,0.612 -3.671875,1.09375 l -0.195312,0 0,-3.73047 c 0.716141,-0.19529 1.751296,-0.41013 3.105469,-0.64453 1.354158,-0.23435 2.688792,-0.35154 4.003906,-0.35156 1.536446,2e-5 2.87108,0.13023 4.003906,0.39063 1.145817,0.24741 2.1354,0.6771 2.96875,1.28906 0.820294,0.59898 1.445293,1.37371 1.875,2.32422 0.429667,0.95053 0.644511,2.12892 0.644531,3.53512 l 0,14.8047 m -3.652343,-5.3711 0,-6.0742 c -1.119808,0.065 -2.441421,0.1628 -3.964844,0.293 -1.510428,0.1302 -2.708344,0.319 -3.59375,0.5664 -1.054696,0.2995 -1.90756,0.7682 -2.558594,1.4062 -0.651048,0.625 -0.976568,1.4909 -0.976562,2.5977 -6e-6,1.25 0.377598,2.194 1.132812,2.832 0.755201,0.625 1.907543,0.9375 3.457031,0.9375 1.289051,0 2.467435,-0.2474 3.535157,-0.7422 1.067693,-0.5078 2.057275,-1.1132 2.96875,-1.8164"
         style=""
         id="path2992" />
      <path
         d="m 68.154297,991.22937 -4.140625,0 0,-3.80859 4.140625,0 0,3.80859 m -0.234375,25.46873 -3.671875,0 0,-21.81639 3.671875,0 0,21.81639"
         style=""
         id="path2994" />
      <path
         d="m 93.310547,1016.6981 -3.671875,0 0,-12.4219 c -1.8e-5,-1.0025 -0.05861,-1.94 -0.175781,-2.8125 -0.117206,-0.8854 -0.332049,-1.57546 -0.644532,-2.07027 -0.325537,-0.54685 -0.794287,-0.9505 -1.40625,-1.21093 -0.611994,-0.27342 -1.406264,-0.41014 -2.382812,-0.41016 -1.002617,2e-5 -2.050793,0.24741 -3.144531,0.74219 -1.09376,0.49481 -2.141936,1.12632 -3.144532,1.89457 l 0,16.289 -3.671875,0 0,-21.81639 3.671875,0 0,2.42188 c 1.145825,-0.9505 2.33072,-1.69269 3.554688,-2.22656 1.223946,-0.53384 2.480455,-0.80076 3.769531,-0.80078 2.356754,2e-5 4.153627,0.70965 5.390625,2.1289 1.236958,1.41929 1.855447,3.46356 1.855469,6.13285 l 0,14.1601"
         style=""
         id="path2996" />
    </g>
  </g>
</svg>
